G04 #@! TF.GenerationSoftware,KiCad,Pcbnew,(5.1.5)-3*
G04 #@! TF.CreationDate,2020-12-11T12:36:31+02:00*
G04 #@! TF.ProjectId,Single_transistor_AMP,53696e67-6c65-45f7-9472-616e73697374,V1.0*
G04 #@! TF.SameCoordinates,Original*
G04 #@! TF.FileFunction,Copper,L1,Top*
G04 #@! TF.FilePolarity,Positive*
%FSLAX46Y46*%
G04 Gerber Fmt 4.6, Leading zero omitted, Abs format (unit mm)*
G04 Created by KiCad (PCBNEW (5.1.5)-3) date 2020-12-11 12:36:31*
%MOMM*%
%LPD*%
G04 APERTURE LIST*
%ADD10C,0.100000*%
%ADD11R,3.000000X3.000000*%
%ADD12C,3.000000*%
%ADD13C,1.300000*%
%ADD14R,1.300000X1.300000*%
%ADD15O,1.050000X1.500000*%
%ADD16R,1.050000X1.500000*%
%ADD17C,0.800000*%
%ADD18C,0.500000*%
%ADD19C,0.250000*%
%ADD20C,0.254000*%
G04 APERTURE END LIST*
G04 #@! TA.AperFunction,SMDPad,CuDef*
D10*
G36*
X131600779Y-79536144D02*
G01*
X131623834Y-79539563D01*
X131646443Y-79545227D01*
X131668387Y-79553079D01*
X131689457Y-79563044D01*
X131709448Y-79575026D01*
X131728168Y-79588910D01*
X131745438Y-79604562D01*
X131761090Y-79621832D01*
X131774974Y-79640552D01*
X131786956Y-79660543D01*
X131796921Y-79681613D01*
X131804773Y-79703557D01*
X131810437Y-79726166D01*
X131813856Y-79749221D01*
X131815000Y-79772500D01*
X131815000Y-80247500D01*
X131813856Y-80270779D01*
X131810437Y-80293834D01*
X131804773Y-80316443D01*
X131796921Y-80338387D01*
X131786956Y-80359457D01*
X131774974Y-80379448D01*
X131761090Y-80398168D01*
X131745438Y-80415438D01*
X131728168Y-80431090D01*
X131709448Y-80444974D01*
X131689457Y-80456956D01*
X131668387Y-80466921D01*
X131646443Y-80474773D01*
X131623834Y-80480437D01*
X131600779Y-80483856D01*
X131577500Y-80485000D01*
X131002500Y-80485000D01*
X130979221Y-80483856D01*
X130956166Y-80480437D01*
X130933557Y-80474773D01*
X130911613Y-80466921D01*
X130890543Y-80456956D01*
X130870552Y-80444974D01*
X130851832Y-80431090D01*
X130834562Y-80415438D01*
X130818910Y-80398168D01*
X130805026Y-80379448D01*
X130793044Y-80359457D01*
X130783079Y-80338387D01*
X130775227Y-80316443D01*
X130769563Y-80293834D01*
X130766144Y-80270779D01*
X130765000Y-80247500D01*
X130765000Y-79772500D01*
X130766144Y-79749221D01*
X130769563Y-79726166D01*
X130775227Y-79703557D01*
X130783079Y-79681613D01*
X130793044Y-79660543D01*
X130805026Y-79640552D01*
X130818910Y-79621832D01*
X130834562Y-79604562D01*
X130851832Y-79588910D01*
X130870552Y-79575026D01*
X130890543Y-79563044D01*
X130911613Y-79553079D01*
X130933557Y-79545227D01*
X130956166Y-79539563D01*
X130979221Y-79536144D01*
X131002500Y-79535000D01*
X131577500Y-79535000D01*
X131600779Y-79536144D01*
G37*
G04 #@! TD.AperFunction*
G04 #@! TA.AperFunction,SMDPad,CuDef*
G36*
X129850779Y-79536144D02*
G01*
X129873834Y-79539563D01*
X129896443Y-79545227D01*
X129918387Y-79553079D01*
X129939457Y-79563044D01*
X129959448Y-79575026D01*
X129978168Y-79588910D01*
X129995438Y-79604562D01*
X130011090Y-79621832D01*
X130024974Y-79640552D01*
X130036956Y-79660543D01*
X130046921Y-79681613D01*
X130054773Y-79703557D01*
X130060437Y-79726166D01*
X130063856Y-79749221D01*
X130065000Y-79772500D01*
X130065000Y-80247500D01*
X130063856Y-80270779D01*
X130060437Y-80293834D01*
X130054773Y-80316443D01*
X130046921Y-80338387D01*
X130036956Y-80359457D01*
X130024974Y-80379448D01*
X130011090Y-80398168D01*
X129995438Y-80415438D01*
X129978168Y-80431090D01*
X129959448Y-80444974D01*
X129939457Y-80456956D01*
X129918387Y-80466921D01*
X129896443Y-80474773D01*
X129873834Y-80480437D01*
X129850779Y-80483856D01*
X129827500Y-80485000D01*
X129252500Y-80485000D01*
X129229221Y-80483856D01*
X129206166Y-80480437D01*
X129183557Y-80474773D01*
X129161613Y-80466921D01*
X129140543Y-80456956D01*
X129120552Y-80444974D01*
X129101832Y-80431090D01*
X129084562Y-80415438D01*
X129068910Y-80398168D01*
X129055026Y-80379448D01*
X129043044Y-80359457D01*
X129033079Y-80338387D01*
X129025227Y-80316443D01*
X129019563Y-80293834D01*
X129016144Y-80270779D01*
X129015000Y-80247500D01*
X129015000Y-79772500D01*
X129016144Y-79749221D01*
X129019563Y-79726166D01*
X129025227Y-79703557D01*
X129033079Y-79681613D01*
X129043044Y-79660543D01*
X129055026Y-79640552D01*
X129068910Y-79621832D01*
X129084562Y-79604562D01*
X129101832Y-79588910D01*
X129120552Y-79575026D01*
X129140543Y-79563044D01*
X129161613Y-79553079D01*
X129183557Y-79545227D01*
X129206166Y-79539563D01*
X129229221Y-79536144D01*
X129252500Y-79535000D01*
X129827500Y-79535000D01*
X129850779Y-79536144D01*
G37*
G04 #@! TD.AperFunction*
G04 #@! TA.AperFunction,SMDPad,CuDef*
G36*
X128744505Y-85296204D02*
G01*
X128768773Y-85299804D01*
X128792572Y-85305765D01*
X128815671Y-85314030D01*
X128837850Y-85324520D01*
X128858893Y-85337132D01*
X128878599Y-85351747D01*
X128896777Y-85368223D01*
X128913253Y-85386401D01*
X128927868Y-85406107D01*
X128940480Y-85427150D01*
X128950970Y-85449329D01*
X128959235Y-85472428D01*
X128965196Y-85496227D01*
X128968796Y-85520495D01*
X128970000Y-85544999D01*
X128970000Y-86195001D01*
X128968796Y-86219505D01*
X128965196Y-86243773D01*
X128959235Y-86267572D01*
X128950970Y-86290671D01*
X128940480Y-86312850D01*
X128927868Y-86333893D01*
X128913253Y-86353599D01*
X128896777Y-86371777D01*
X128878599Y-86388253D01*
X128858893Y-86402868D01*
X128837850Y-86415480D01*
X128815671Y-86425970D01*
X128792572Y-86434235D01*
X128768773Y-86440196D01*
X128744505Y-86443796D01*
X128720001Y-86445000D01*
X127819999Y-86445000D01*
X127795495Y-86443796D01*
X127771227Y-86440196D01*
X127747428Y-86434235D01*
X127724329Y-86425970D01*
X127702150Y-86415480D01*
X127681107Y-86402868D01*
X127661401Y-86388253D01*
X127643223Y-86371777D01*
X127626747Y-86353599D01*
X127612132Y-86333893D01*
X127599520Y-86312850D01*
X127589030Y-86290671D01*
X127580765Y-86267572D01*
X127574804Y-86243773D01*
X127571204Y-86219505D01*
X127570000Y-86195001D01*
X127570000Y-85544999D01*
X127571204Y-85520495D01*
X127574804Y-85496227D01*
X127580765Y-85472428D01*
X127589030Y-85449329D01*
X127599520Y-85427150D01*
X127612132Y-85406107D01*
X127626747Y-85386401D01*
X127643223Y-85368223D01*
X127661401Y-85351747D01*
X127681107Y-85337132D01*
X127702150Y-85324520D01*
X127724329Y-85314030D01*
X127747428Y-85305765D01*
X127771227Y-85299804D01*
X127795495Y-85296204D01*
X127819999Y-85295000D01*
X128720001Y-85295000D01*
X128744505Y-85296204D01*
G37*
G04 #@! TD.AperFunction*
G04 #@! TA.AperFunction,SMDPad,CuDef*
G36*
X128744505Y-83246204D02*
G01*
X128768773Y-83249804D01*
X128792572Y-83255765D01*
X128815671Y-83264030D01*
X128837850Y-83274520D01*
X128858893Y-83287132D01*
X128878599Y-83301747D01*
X128896777Y-83318223D01*
X128913253Y-83336401D01*
X128927868Y-83356107D01*
X128940480Y-83377150D01*
X128950970Y-83399329D01*
X128959235Y-83422428D01*
X128965196Y-83446227D01*
X128968796Y-83470495D01*
X128970000Y-83494999D01*
X128970000Y-84145001D01*
X128968796Y-84169505D01*
X128965196Y-84193773D01*
X128959235Y-84217572D01*
X128950970Y-84240671D01*
X128940480Y-84262850D01*
X128927868Y-84283893D01*
X128913253Y-84303599D01*
X128896777Y-84321777D01*
X128878599Y-84338253D01*
X128858893Y-84352868D01*
X128837850Y-84365480D01*
X128815671Y-84375970D01*
X128792572Y-84384235D01*
X128768773Y-84390196D01*
X128744505Y-84393796D01*
X128720001Y-84395000D01*
X127819999Y-84395000D01*
X127795495Y-84393796D01*
X127771227Y-84390196D01*
X127747428Y-84384235D01*
X127724329Y-84375970D01*
X127702150Y-84365480D01*
X127681107Y-84352868D01*
X127661401Y-84338253D01*
X127643223Y-84321777D01*
X127626747Y-84303599D01*
X127612132Y-84283893D01*
X127599520Y-84262850D01*
X127589030Y-84240671D01*
X127580765Y-84217572D01*
X127574804Y-84193773D01*
X127571204Y-84169505D01*
X127570000Y-84145001D01*
X127570000Y-83494999D01*
X127571204Y-83470495D01*
X127574804Y-83446227D01*
X127580765Y-83422428D01*
X127589030Y-83399329D01*
X127599520Y-83377150D01*
X127612132Y-83356107D01*
X127626747Y-83336401D01*
X127643223Y-83318223D01*
X127661401Y-83301747D01*
X127681107Y-83287132D01*
X127702150Y-83274520D01*
X127724329Y-83264030D01*
X127747428Y-83255765D01*
X127771227Y-83249804D01*
X127795495Y-83246204D01*
X127819999Y-83245000D01*
X128720001Y-83245000D01*
X128744505Y-83246204D01*
G37*
G04 #@! TD.AperFunction*
G04 #@! TA.AperFunction,SMDPad,CuDef*
G36*
X143235779Y-87976144D02*
G01*
X143258834Y-87979563D01*
X143281443Y-87985227D01*
X143303387Y-87993079D01*
X143324457Y-88003044D01*
X143344448Y-88015026D01*
X143363168Y-88028910D01*
X143380438Y-88044562D01*
X143396090Y-88061832D01*
X143409974Y-88080552D01*
X143421956Y-88100543D01*
X143431921Y-88121613D01*
X143439773Y-88143557D01*
X143445437Y-88166166D01*
X143448856Y-88189221D01*
X143450000Y-88212500D01*
X143450000Y-88787500D01*
X143448856Y-88810779D01*
X143445437Y-88833834D01*
X143439773Y-88856443D01*
X143431921Y-88878387D01*
X143421956Y-88899457D01*
X143409974Y-88919448D01*
X143396090Y-88938168D01*
X143380438Y-88955438D01*
X143363168Y-88971090D01*
X143344448Y-88984974D01*
X143324457Y-88996956D01*
X143303387Y-89006921D01*
X143281443Y-89014773D01*
X143258834Y-89020437D01*
X143235779Y-89023856D01*
X143212500Y-89025000D01*
X142737500Y-89025000D01*
X142714221Y-89023856D01*
X142691166Y-89020437D01*
X142668557Y-89014773D01*
X142646613Y-89006921D01*
X142625543Y-88996956D01*
X142605552Y-88984974D01*
X142586832Y-88971090D01*
X142569562Y-88955438D01*
X142553910Y-88938168D01*
X142540026Y-88919448D01*
X142528044Y-88899457D01*
X142518079Y-88878387D01*
X142510227Y-88856443D01*
X142504563Y-88833834D01*
X142501144Y-88810779D01*
X142500000Y-88787500D01*
X142500000Y-88212500D01*
X142501144Y-88189221D01*
X142504563Y-88166166D01*
X142510227Y-88143557D01*
X142518079Y-88121613D01*
X142528044Y-88100543D01*
X142540026Y-88080552D01*
X142553910Y-88061832D01*
X142569562Y-88044562D01*
X142586832Y-88028910D01*
X142605552Y-88015026D01*
X142625543Y-88003044D01*
X142646613Y-87993079D01*
X142668557Y-87985227D01*
X142691166Y-87979563D01*
X142714221Y-87976144D01*
X142737500Y-87975000D01*
X143212500Y-87975000D01*
X143235779Y-87976144D01*
G37*
G04 #@! TD.AperFunction*
G04 #@! TA.AperFunction,SMDPad,CuDef*
G36*
X143235779Y-89726144D02*
G01*
X143258834Y-89729563D01*
X143281443Y-89735227D01*
X143303387Y-89743079D01*
X143324457Y-89753044D01*
X143344448Y-89765026D01*
X143363168Y-89778910D01*
X143380438Y-89794562D01*
X143396090Y-89811832D01*
X143409974Y-89830552D01*
X143421956Y-89850543D01*
X143431921Y-89871613D01*
X143439773Y-89893557D01*
X143445437Y-89916166D01*
X143448856Y-89939221D01*
X143450000Y-89962500D01*
X143450000Y-90537500D01*
X143448856Y-90560779D01*
X143445437Y-90583834D01*
X143439773Y-90606443D01*
X143431921Y-90628387D01*
X143421956Y-90649457D01*
X143409974Y-90669448D01*
X143396090Y-90688168D01*
X143380438Y-90705438D01*
X143363168Y-90721090D01*
X143344448Y-90734974D01*
X143324457Y-90746956D01*
X143303387Y-90756921D01*
X143281443Y-90764773D01*
X143258834Y-90770437D01*
X143235779Y-90773856D01*
X143212500Y-90775000D01*
X142737500Y-90775000D01*
X142714221Y-90773856D01*
X142691166Y-90770437D01*
X142668557Y-90764773D01*
X142646613Y-90756921D01*
X142625543Y-90746956D01*
X142605552Y-90734974D01*
X142586832Y-90721090D01*
X142569562Y-90705438D01*
X142553910Y-90688168D01*
X142540026Y-90669448D01*
X142528044Y-90649457D01*
X142518079Y-90628387D01*
X142510227Y-90606443D01*
X142504563Y-90583834D01*
X142501144Y-90560779D01*
X142500000Y-90537500D01*
X142500000Y-89962500D01*
X142501144Y-89939221D01*
X142504563Y-89916166D01*
X142510227Y-89893557D01*
X142518079Y-89871613D01*
X142528044Y-89850543D01*
X142540026Y-89830552D01*
X142553910Y-89811832D01*
X142569562Y-89794562D01*
X142586832Y-89778910D01*
X142605552Y-89765026D01*
X142625543Y-89753044D01*
X142646613Y-89743079D01*
X142668557Y-89735227D01*
X142691166Y-89729563D01*
X142714221Y-89726144D01*
X142737500Y-89725000D01*
X143212500Y-89725000D01*
X143235779Y-89726144D01*
G37*
G04 #@! TD.AperFunction*
D11*
X120650000Y-85090000D03*
D12*
X120650000Y-80010000D03*
X147345000Y-78550000D03*
D11*
X152425000Y-78550000D03*
X152425000Y-87350000D03*
D12*
X147345000Y-87350000D03*
D13*
X135890000Y-78740000D03*
X137160000Y-80010000D03*
D14*
X134620000Y-80010000D03*
D15*
X135930000Y-85075000D03*
X134660000Y-85075000D03*
D16*
X137200000Y-85075000D03*
G04 #@! TA.AperFunction,SMDPad,CuDef*
D10*
G36*
X143502691Y-81763553D02*
G01*
X143523926Y-81766703D01*
X143544750Y-81771919D01*
X143564962Y-81779151D01*
X143584368Y-81788330D01*
X143602781Y-81799366D01*
X143620024Y-81812154D01*
X143635930Y-81826570D01*
X143650346Y-81842476D01*
X143663134Y-81859719D01*
X143674170Y-81878132D01*
X143683349Y-81897538D01*
X143690581Y-81917750D01*
X143695797Y-81938574D01*
X143698947Y-81959809D01*
X143700000Y-81981250D01*
X143700000Y-82418750D01*
X143698947Y-82440191D01*
X143695797Y-82461426D01*
X143690581Y-82482250D01*
X143683349Y-82502462D01*
X143674170Y-82521868D01*
X143663134Y-82540281D01*
X143650346Y-82557524D01*
X143635930Y-82573430D01*
X143620024Y-82587846D01*
X143602781Y-82600634D01*
X143584368Y-82611670D01*
X143564962Y-82620849D01*
X143544750Y-82628081D01*
X143523926Y-82633297D01*
X143502691Y-82636447D01*
X143481250Y-82637500D01*
X142968750Y-82637500D01*
X142947309Y-82636447D01*
X142926074Y-82633297D01*
X142905250Y-82628081D01*
X142885038Y-82620849D01*
X142865632Y-82611670D01*
X142847219Y-82600634D01*
X142829976Y-82587846D01*
X142814070Y-82573430D01*
X142799654Y-82557524D01*
X142786866Y-82540281D01*
X142775830Y-82521868D01*
X142766651Y-82502462D01*
X142759419Y-82482250D01*
X142754203Y-82461426D01*
X142751053Y-82440191D01*
X142750000Y-82418750D01*
X142750000Y-81981250D01*
X142751053Y-81959809D01*
X142754203Y-81938574D01*
X142759419Y-81917750D01*
X142766651Y-81897538D01*
X142775830Y-81878132D01*
X142786866Y-81859719D01*
X142799654Y-81842476D01*
X142814070Y-81826570D01*
X142829976Y-81812154D01*
X142847219Y-81799366D01*
X142865632Y-81788330D01*
X142885038Y-81779151D01*
X142905250Y-81771919D01*
X142926074Y-81766703D01*
X142947309Y-81763553D01*
X142968750Y-81762500D01*
X143481250Y-81762500D01*
X143502691Y-81763553D01*
G37*
G04 #@! TD.AperFunction*
G04 #@! TA.AperFunction,SMDPad,CuDef*
G36*
X143502691Y-80188553D02*
G01*
X143523926Y-80191703D01*
X143544750Y-80196919D01*
X143564962Y-80204151D01*
X143584368Y-80213330D01*
X143602781Y-80224366D01*
X143620024Y-80237154D01*
X143635930Y-80251570D01*
X143650346Y-80267476D01*
X143663134Y-80284719D01*
X143674170Y-80303132D01*
X143683349Y-80322538D01*
X143690581Y-80342750D01*
X143695797Y-80363574D01*
X143698947Y-80384809D01*
X143700000Y-80406250D01*
X143700000Y-80843750D01*
X143698947Y-80865191D01*
X143695797Y-80886426D01*
X143690581Y-80907250D01*
X143683349Y-80927462D01*
X143674170Y-80946868D01*
X143663134Y-80965281D01*
X143650346Y-80982524D01*
X143635930Y-80998430D01*
X143620024Y-81012846D01*
X143602781Y-81025634D01*
X143584368Y-81036670D01*
X143564962Y-81045849D01*
X143544750Y-81053081D01*
X143523926Y-81058297D01*
X143502691Y-81061447D01*
X143481250Y-81062500D01*
X142968750Y-81062500D01*
X142947309Y-81061447D01*
X142926074Y-81058297D01*
X142905250Y-81053081D01*
X142885038Y-81045849D01*
X142865632Y-81036670D01*
X142847219Y-81025634D01*
X142829976Y-81012846D01*
X142814070Y-80998430D01*
X142799654Y-80982524D01*
X142786866Y-80965281D01*
X142775830Y-80946868D01*
X142766651Y-80927462D01*
X142759419Y-80907250D01*
X142754203Y-80886426D01*
X142751053Y-80865191D01*
X142750000Y-80843750D01*
X142750000Y-80406250D01*
X142751053Y-80384809D01*
X142754203Y-80363574D01*
X142759419Y-80342750D01*
X142766651Y-80322538D01*
X142775830Y-80303132D01*
X142786866Y-80284719D01*
X142799654Y-80267476D01*
X142814070Y-80251570D01*
X142829976Y-80237154D01*
X142847219Y-80224366D01*
X142865632Y-80213330D01*
X142885038Y-80204151D01*
X142905250Y-80196919D01*
X142926074Y-80191703D01*
X142947309Y-80188553D01*
X142968750Y-80187500D01*
X143481250Y-80187500D01*
X143502691Y-80188553D01*
G37*
G04 #@! TD.AperFunction*
G04 #@! TA.AperFunction,SMDPad,CuDef*
G36*
X131486958Y-82610710D02*
G01*
X131501276Y-82612834D01*
X131515317Y-82616351D01*
X131528946Y-82621228D01*
X131542031Y-82627417D01*
X131554447Y-82634858D01*
X131566073Y-82643481D01*
X131576798Y-82653202D01*
X131586519Y-82663927D01*
X131595142Y-82675553D01*
X131602583Y-82687969D01*
X131608772Y-82701054D01*
X131613649Y-82714683D01*
X131617166Y-82728724D01*
X131619290Y-82743042D01*
X131620000Y-82757500D01*
X131620000Y-83052500D01*
X131619290Y-83066958D01*
X131617166Y-83081276D01*
X131613649Y-83095317D01*
X131608772Y-83108946D01*
X131602583Y-83122031D01*
X131595142Y-83134447D01*
X131586519Y-83146073D01*
X131576798Y-83156798D01*
X131566073Y-83166519D01*
X131554447Y-83175142D01*
X131542031Y-83182583D01*
X131528946Y-83188772D01*
X131515317Y-83193649D01*
X131501276Y-83197166D01*
X131486958Y-83199290D01*
X131472500Y-83200000D01*
X131127500Y-83200000D01*
X131113042Y-83199290D01*
X131098724Y-83197166D01*
X131084683Y-83193649D01*
X131071054Y-83188772D01*
X131057969Y-83182583D01*
X131045553Y-83175142D01*
X131033927Y-83166519D01*
X131023202Y-83156798D01*
X131013481Y-83146073D01*
X131004858Y-83134447D01*
X130997417Y-83122031D01*
X130991228Y-83108946D01*
X130986351Y-83095317D01*
X130982834Y-83081276D01*
X130980710Y-83066958D01*
X130980000Y-83052500D01*
X130980000Y-82757500D01*
X130980710Y-82743042D01*
X130982834Y-82728724D01*
X130986351Y-82714683D01*
X130991228Y-82701054D01*
X130997417Y-82687969D01*
X131004858Y-82675553D01*
X131013481Y-82663927D01*
X131023202Y-82653202D01*
X131033927Y-82643481D01*
X131045553Y-82634858D01*
X131057969Y-82627417D01*
X131071054Y-82621228D01*
X131084683Y-82616351D01*
X131098724Y-82612834D01*
X131113042Y-82610710D01*
X131127500Y-82610000D01*
X131472500Y-82610000D01*
X131486958Y-82610710D01*
G37*
G04 #@! TD.AperFunction*
G04 #@! TA.AperFunction,SMDPad,CuDef*
G36*
X131486958Y-83580710D02*
G01*
X131501276Y-83582834D01*
X131515317Y-83586351D01*
X131528946Y-83591228D01*
X131542031Y-83597417D01*
X131554447Y-83604858D01*
X131566073Y-83613481D01*
X131576798Y-83623202D01*
X131586519Y-83633927D01*
X131595142Y-83645553D01*
X131602583Y-83657969D01*
X131608772Y-83671054D01*
X131613649Y-83684683D01*
X131617166Y-83698724D01*
X131619290Y-83713042D01*
X131620000Y-83727500D01*
X131620000Y-84022500D01*
X131619290Y-84036958D01*
X131617166Y-84051276D01*
X131613649Y-84065317D01*
X131608772Y-84078946D01*
X131602583Y-84092031D01*
X131595142Y-84104447D01*
X131586519Y-84116073D01*
X131576798Y-84126798D01*
X131566073Y-84136519D01*
X131554447Y-84145142D01*
X131542031Y-84152583D01*
X131528946Y-84158772D01*
X131515317Y-84163649D01*
X131501276Y-84167166D01*
X131486958Y-84169290D01*
X131472500Y-84170000D01*
X131127500Y-84170000D01*
X131113042Y-84169290D01*
X131098724Y-84167166D01*
X131084683Y-84163649D01*
X131071054Y-84158772D01*
X131057969Y-84152583D01*
X131045553Y-84145142D01*
X131033927Y-84136519D01*
X131023202Y-84126798D01*
X131013481Y-84116073D01*
X131004858Y-84104447D01*
X130997417Y-84092031D01*
X130991228Y-84078946D01*
X130986351Y-84065317D01*
X130982834Y-84051276D01*
X130980710Y-84036958D01*
X130980000Y-84022500D01*
X130980000Y-83727500D01*
X130980710Y-83713042D01*
X130982834Y-83698724D01*
X130986351Y-83684683D01*
X130991228Y-83671054D01*
X130997417Y-83657969D01*
X131004858Y-83645553D01*
X131013481Y-83633927D01*
X131023202Y-83623202D01*
X131033927Y-83613481D01*
X131045553Y-83604858D01*
X131057969Y-83597417D01*
X131071054Y-83591228D01*
X131084683Y-83586351D01*
X131098724Y-83582834D01*
X131113042Y-83580710D01*
X131127500Y-83580000D01*
X131472500Y-83580000D01*
X131486958Y-83580710D01*
G37*
G04 #@! TD.AperFunction*
G04 #@! TA.AperFunction,SMDPad,CuDef*
G36*
X141627691Y-86113553D02*
G01*
X141648926Y-86116703D01*
X141669750Y-86121919D01*
X141689962Y-86129151D01*
X141709368Y-86138330D01*
X141727781Y-86149366D01*
X141745024Y-86162154D01*
X141760930Y-86176570D01*
X141775346Y-86192476D01*
X141788134Y-86209719D01*
X141799170Y-86228132D01*
X141808349Y-86247538D01*
X141815581Y-86267750D01*
X141820797Y-86288574D01*
X141823947Y-86309809D01*
X141825000Y-86331250D01*
X141825000Y-86768750D01*
X141823947Y-86790191D01*
X141820797Y-86811426D01*
X141815581Y-86832250D01*
X141808349Y-86852462D01*
X141799170Y-86871868D01*
X141788134Y-86890281D01*
X141775346Y-86907524D01*
X141760930Y-86923430D01*
X141745024Y-86937846D01*
X141727781Y-86950634D01*
X141709368Y-86961670D01*
X141689962Y-86970849D01*
X141669750Y-86978081D01*
X141648926Y-86983297D01*
X141627691Y-86986447D01*
X141606250Y-86987500D01*
X141093750Y-86987500D01*
X141072309Y-86986447D01*
X141051074Y-86983297D01*
X141030250Y-86978081D01*
X141010038Y-86970849D01*
X140990632Y-86961670D01*
X140972219Y-86950634D01*
X140954976Y-86937846D01*
X140939070Y-86923430D01*
X140924654Y-86907524D01*
X140911866Y-86890281D01*
X140900830Y-86871868D01*
X140891651Y-86852462D01*
X140884419Y-86832250D01*
X140879203Y-86811426D01*
X140876053Y-86790191D01*
X140875000Y-86768750D01*
X140875000Y-86331250D01*
X140876053Y-86309809D01*
X140879203Y-86288574D01*
X140884419Y-86267750D01*
X140891651Y-86247538D01*
X140900830Y-86228132D01*
X140911866Y-86209719D01*
X140924654Y-86192476D01*
X140939070Y-86176570D01*
X140954976Y-86162154D01*
X140972219Y-86149366D01*
X140990632Y-86138330D01*
X141010038Y-86129151D01*
X141030250Y-86121919D01*
X141051074Y-86116703D01*
X141072309Y-86113553D01*
X141093750Y-86112500D01*
X141606250Y-86112500D01*
X141627691Y-86113553D01*
G37*
G04 #@! TD.AperFunction*
G04 #@! TA.AperFunction,SMDPad,CuDef*
G36*
X141627691Y-84538553D02*
G01*
X141648926Y-84541703D01*
X141669750Y-84546919D01*
X141689962Y-84554151D01*
X141709368Y-84563330D01*
X141727781Y-84574366D01*
X141745024Y-84587154D01*
X141760930Y-84601570D01*
X141775346Y-84617476D01*
X141788134Y-84634719D01*
X141799170Y-84653132D01*
X141808349Y-84672538D01*
X141815581Y-84692750D01*
X141820797Y-84713574D01*
X141823947Y-84734809D01*
X141825000Y-84756250D01*
X141825000Y-85193750D01*
X141823947Y-85215191D01*
X141820797Y-85236426D01*
X141815581Y-85257250D01*
X141808349Y-85277462D01*
X141799170Y-85296868D01*
X141788134Y-85315281D01*
X141775346Y-85332524D01*
X141760930Y-85348430D01*
X141745024Y-85362846D01*
X141727781Y-85375634D01*
X141709368Y-85386670D01*
X141689962Y-85395849D01*
X141669750Y-85403081D01*
X141648926Y-85408297D01*
X141627691Y-85411447D01*
X141606250Y-85412500D01*
X141093750Y-85412500D01*
X141072309Y-85411447D01*
X141051074Y-85408297D01*
X141030250Y-85403081D01*
X141010038Y-85395849D01*
X140990632Y-85386670D01*
X140972219Y-85375634D01*
X140954976Y-85362846D01*
X140939070Y-85348430D01*
X140924654Y-85332524D01*
X140911866Y-85315281D01*
X140900830Y-85296868D01*
X140891651Y-85277462D01*
X140884419Y-85257250D01*
X140879203Y-85236426D01*
X140876053Y-85215191D01*
X140875000Y-85193750D01*
X140875000Y-84756250D01*
X140876053Y-84734809D01*
X140879203Y-84713574D01*
X140884419Y-84692750D01*
X140891651Y-84672538D01*
X140900830Y-84653132D01*
X140911866Y-84634719D01*
X140924654Y-84617476D01*
X140939070Y-84601570D01*
X140954976Y-84587154D01*
X140972219Y-84574366D01*
X140990632Y-84563330D01*
X141010038Y-84554151D01*
X141030250Y-84546919D01*
X141051074Y-84541703D01*
X141072309Y-84538553D01*
X141093750Y-84537500D01*
X141606250Y-84537500D01*
X141627691Y-84538553D01*
G37*
G04 #@! TD.AperFunction*
G04 #@! TA.AperFunction,SMDPad,CuDef*
G36*
X140702691Y-80238553D02*
G01*
X140723926Y-80241703D01*
X140744750Y-80246919D01*
X140764962Y-80254151D01*
X140784368Y-80263330D01*
X140802781Y-80274366D01*
X140820024Y-80287154D01*
X140835930Y-80301570D01*
X140850346Y-80317476D01*
X140863134Y-80334719D01*
X140874170Y-80353132D01*
X140883349Y-80372538D01*
X140890581Y-80392750D01*
X140895797Y-80413574D01*
X140898947Y-80434809D01*
X140900000Y-80456250D01*
X140900000Y-80893750D01*
X140898947Y-80915191D01*
X140895797Y-80936426D01*
X140890581Y-80957250D01*
X140883349Y-80977462D01*
X140874170Y-80996868D01*
X140863134Y-81015281D01*
X140850346Y-81032524D01*
X140835930Y-81048430D01*
X140820024Y-81062846D01*
X140802781Y-81075634D01*
X140784368Y-81086670D01*
X140764962Y-81095849D01*
X140744750Y-81103081D01*
X140723926Y-81108297D01*
X140702691Y-81111447D01*
X140681250Y-81112500D01*
X140168750Y-81112500D01*
X140147309Y-81111447D01*
X140126074Y-81108297D01*
X140105250Y-81103081D01*
X140085038Y-81095849D01*
X140065632Y-81086670D01*
X140047219Y-81075634D01*
X140029976Y-81062846D01*
X140014070Y-81048430D01*
X139999654Y-81032524D01*
X139986866Y-81015281D01*
X139975830Y-80996868D01*
X139966651Y-80977462D01*
X139959419Y-80957250D01*
X139954203Y-80936426D01*
X139951053Y-80915191D01*
X139950000Y-80893750D01*
X139950000Y-80456250D01*
X139951053Y-80434809D01*
X139954203Y-80413574D01*
X139959419Y-80392750D01*
X139966651Y-80372538D01*
X139975830Y-80353132D01*
X139986866Y-80334719D01*
X139999654Y-80317476D01*
X140014070Y-80301570D01*
X140029976Y-80287154D01*
X140047219Y-80274366D01*
X140065632Y-80263330D01*
X140085038Y-80254151D01*
X140105250Y-80246919D01*
X140126074Y-80241703D01*
X140147309Y-80238553D01*
X140168750Y-80237500D01*
X140681250Y-80237500D01*
X140702691Y-80238553D01*
G37*
G04 #@! TD.AperFunction*
G04 #@! TA.AperFunction,SMDPad,CuDef*
G36*
X140702691Y-81813553D02*
G01*
X140723926Y-81816703D01*
X140744750Y-81821919D01*
X140764962Y-81829151D01*
X140784368Y-81838330D01*
X140802781Y-81849366D01*
X140820024Y-81862154D01*
X140835930Y-81876570D01*
X140850346Y-81892476D01*
X140863134Y-81909719D01*
X140874170Y-81928132D01*
X140883349Y-81947538D01*
X140890581Y-81967750D01*
X140895797Y-81988574D01*
X140898947Y-82009809D01*
X140900000Y-82031250D01*
X140900000Y-82468750D01*
X140898947Y-82490191D01*
X140895797Y-82511426D01*
X140890581Y-82532250D01*
X140883349Y-82552462D01*
X140874170Y-82571868D01*
X140863134Y-82590281D01*
X140850346Y-82607524D01*
X140835930Y-82623430D01*
X140820024Y-82637846D01*
X140802781Y-82650634D01*
X140784368Y-82661670D01*
X140764962Y-82670849D01*
X140744750Y-82678081D01*
X140723926Y-82683297D01*
X140702691Y-82686447D01*
X140681250Y-82687500D01*
X140168750Y-82687500D01*
X140147309Y-82686447D01*
X140126074Y-82683297D01*
X140105250Y-82678081D01*
X140085038Y-82670849D01*
X140065632Y-82661670D01*
X140047219Y-82650634D01*
X140029976Y-82637846D01*
X140014070Y-82623430D01*
X139999654Y-82607524D01*
X139986866Y-82590281D01*
X139975830Y-82571868D01*
X139966651Y-82552462D01*
X139959419Y-82532250D01*
X139954203Y-82511426D01*
X139951053Y-82490191D01*
X139950000Y-82468750D01*
X139950000Y-82031250D01*
X139951053Y-82009809D01*
X139954203Y-81988574D01*
X139959419Y-81967750D01*
X139966651Y-81947538D01*
X139975830Y-81928132D01*
X139986866Y-81909719D01*
X139999654Y-81892476D01*
X140014070Y-81876570D01*
X140029976Y-81862154D01*
X140047219Y-81849366D01*
X140065632Y-81838330D01*
X140085038Y-81829151D01*
X140105250Y-81821919D01*
X140126074Y-81816703D01*
X140147309Y-81813553D01*
X140168750Y-81812500D01*
X140681250Y-81812500D01*
X140702691Y-81813553D01*
G37*
G04 #@! TD.AperFunction*
G04 #@! TA.AperFunction,SMDPad,CuDef*
G36*
X131511958Y-86475710D02*
G01*
X131526276Y-86477834D01*
X131540317Y-86481351D01*
X131553946Y-86486228D01*
X131567031Y-86492417D01*
X131579447Y-86499858D01*
X131591073Y-86508481D01*
X131601798Y-86518202D01*
X131611519Y-86528927D01*
X131620142Y-86540553D01*
X131627583Y-86552969D01*
X131633772Y-86566054D01*
X131638649Y-86579683D01*
X131642166Y-86593724D01*
X131644290Y-86608042D01*
X131645000Y-86622500D01*
X131645000Y-86917500D01*
X131644290Y-86931958D01*
X131642166Y-86946276D01*
X131638649Y-86960317D01*
X131633772Y-86973946D01*
X131627583Y-86987031D01*
X131620142Y-86999447D01*
X131611519Y-87011073D01*
X131601798Y-87021798D01*
X131591073Y-87031519D01*
X131579447Y-87040142D01*
X131567031Y-87047583D01*
X131553946Y-87053772D01*
X131540317Y-87058649D01*
X131526276Y-87062166D01*
X131511958Y-87064290D01*
X131497500Y-87065000D01*
X131152500Y-87065000D01*
X131138042Y-87064290D01*
X131123724Y-87062166D01*
X131109683Y-87058649D01*
X131096054Y-87053772D01*
X131082969Y-87047583D01*
X131070553Y-87040142D01*
X131058927Y-87031519D01*
X131048202Y-87021798D01*
X131038481Y-87011073D01*
X131029858Y-86999447D01*
X131022417Y-86987031D01*
X131016228Y-86973946D01*
X131011351Y-86960317D01*
X131007834Y-86946276D01*
X131005710Y-86931958D01*
X131005000Y-86917500D01*
X131005000Y-86622500D01*
X131005710Y-86608042D01*
X131007834Y-86593724D01*
X131011351Y-86579683D01*
X131016228Y-86566054D01*
X131022417Y-86552969D01*
X131029858Y-86540553D01*
X131038481Y-86528927D01*
X131048202Y-86518202D01*
X131058927Y-86508481D01*
X131070553Y-86499858D01*
X131082969Y-86492417D01*
X131096054Y-86486228D01*
X131109683Y-86481351D01*
X131123724Y-86477834D01*
X131138042Y-86475710D01*
X131152500Y-86475000D01*
X131497500Y-86475000D01*
X131511958Y-86475710D01*
G37*
G04 #@! TD.AperFunction*
G04 #@! TA.AperFunction,SMDPad,CuDef*
G36*
X131511958Y-85505710D02*
G01*
X131526276Y-85507834D01*
X131540317Y-85511351D01*
X131553946Y-85516228D01*
X131567031Y-85522417D01*
X131579447Y-85529858D01*
X131591073Y-85538481D01*
X131601798Y-85548202D01*
X131611519Y-85558927D01*
X131620142Y-85570553D01*
X131627583Y-85582969D01*
X131633772Y-85596054D01*
X131638649Y-85609683D01*
X131642166Y-85623724D01*
X131644290Y-85638042D01*
X131645000Y-85652500D01*
X131645000Y-85947500D01*
X131644290Y-85961958D01*
X131642166Y-85976276D01*
X131638649Y-85990317D01*
X131633772Y-86003946D01*
X131627583Y-86017031D01*
X131620142Y-86029447D01*
X131611519Y-86041073D01*
X131601798Y-86051798D01*
X131591073Y-86061519D01*
X131579447Y-86070142D01*
X131567031Y-86077583D01*
X131553946Y-86083772D01*
X131540317Y-86088649D01*
X131526276Y-86092166D01*
X131511958Y-86094290D01*
X131497500Y-86095000D01*
X131152500Y-86095000D01*
X131138042Y-86094290D01*
X131123724Y-86092166D01*
X131109683Y-86088649D01*
X131096054Y-86083772D01*
X131082969Y-86077583D01*
X131070553Y-86070142D01*
X131058927Y-86061519D01*
X131048202Y-86051798D01*
X131038481Y-86041073D01*
X131029858Y-86029447D01*
X131022417Y-86017031D01*
X131016228Y-86003946D01*
X131011351Y-85990317D01*
X131007834Y-85976276D01*
X131005710Y-85961958D01*
X131005000Y-85947500D01*
X131005000Y-85652500D01*
X131005710Y-85638042D01*
X131007834Y-85623724D01*
X131011351Y-85609683D01*
X131016228Y-85596054D01*
X131022417Y-85582969D01*
X131029858Y-85570553D01*
X131038481Y-85558927D01*
X131048202Y-85548202D01*
X131058927Y-85538481D01*
X131070553Y-85529858D01*
X131082969Y-85522417D01*
X131096054Y-85516228D01*
X131109683Y-85511351D01*
X131123724Y-85507834D01*
X131138042Y-85505710D01*
X131152500Y-85505000D01*
X131497500Y-85505000D01*
X131511958Y-85505710D01*
G37*
G04 #@! TD.AperFunction*
G04 #@! TA.AperFunction,SMDPad,CuDef*
G36*
X134011958Y-88480710D02*
G01*
X134026276Y-88482834D01*
X134040317Y-88486351D01*
X134053946Y-88491228D01*
X134067031Y-88497417D01*
X134079447Y-88504858D01*
X134091073Y-88513481D01*
X134101798Y-88523202D01*
X134111519Y-88533927D01*
X134120142Y-88545553D01*
X134127583Y-88557969D01*
X134133772Y-88571054D01*
X134138649Y-88584683D01*
X134142166Y-88598724D01*
X134144290Y-88613042D01*
X134145000Y-88627500D01*
X134145000Y-88972500D01*
X134144290Y-88986958D01*
X134142166Y-89001276D01*
X134138649Y-89015317D01*
X134133772Y-89028946D01*
X134127583Y-89042031D01*
X134120142Y-89054447D01*
X134111519Y-89066073D01*
X134101798Y-89076798D01*
X134091073Y-89086519D01*
X134079447Y-89095142D01*
X134067031Y-89102583D01*
X134053946Y-89108772D01*
X134040317Y-89113649D01*
X134026276Y-89117166D01*
X134011958Y-89119290D01*
X133997500Y-89120000D01*
X133702500Y-89120000D01*
X133688042Y-89119290D01*
X133673724Y-89117166D01*
X133659683Y-89113649D01*
X133646054Y-89108772D01*
X133632969Y-89102583D01*
X133620553Y-89095142D01*
X133608927Y-89086519D01*
X133598202Y-89076798D01*
X133588481Y-89066073D01*
X133579858Y-89054447D01*
X133572417Y-89042031D01*
X133566228Y-89028946D01*
X133561351Y-89015317D01*
X133557834Y-89001276D01*
X133555710Y-88986958D01*
X133555000Y-88972500D01*
X133555000Y-88627500D01*
X133555710Y-88613042D01*
X133557834Y-88598724D01*
X133561351Y-88584683D01*
X133566228Y-88571054D01*
X133572417Y-88557969D01*
X133579858Y-88545553D01*
X133588481Y-88533927D01*
X133598202Y-88523202D01*
X133608927Y-88513481D01*
X133620553Y-88504858D01*
X133632969Y-88497417D01*
X133646054Y-88491228D01*
X133659683Y-88486351D01*
X133673724Y-88482834D01*
X133688042Y-88480710D01*
X133702500Y-88480000D01*
X133997500Y-88480000D01*
X134011958Y-88480710D01*
G37*
G04 #@! TD.AperFunction*
G04 #@! TA.AperFunction,SMDPad,CuDef*
G36*
X133041958Y-88480710D02*
G01*
X133056276Y-88482834D01*
X133070317Y-88486351D01*
X133083946Y-88491228D01*
X133097031Y-88497417D01*
X133109447Y-88504858D01*
X133121073Y-88513481D01*
X133131798Y-88523202D01*
X133141519Y-88533927D01*
X133150142Y-88545553D01*
X133157583Y-88557969D01*
X133163772Y-88571054D01*
X133168649Y-88584683D01*
X133172166Y-88598724D01*
X133174290Y-88613042D01*
X133175000Y-88627500D01*
X133175000Y-88972500D01*
X133174290Y-88986958D01*
X133172166Y-89001276D01*
X133168649Y-89015317D01*
X133163772Y-89028946D01*
X133157583Y-89042031D01*
X133150142Y-89054447D01*
X133141519Y-89066073D01*
X133131798Y-89076798D01*
X133121073Y-89086519D01*
X133109447Y-89095142D01*
X133097031Y-89102583D01*
X133083946Y-89108772D01*
X133070317Y-89113649D01*
X133056276Y-89117166D01*
X133041958Y-89119290D01*
X133027500Y-89120000D01*
X132732500Y-89120000D01*
X132718042Y-89119290D01*
X132703724Y-89117166D01*
X132689683Y-89113649D01*
X132676054Y-89108772D01*
X132662969Y-89102583D01*
X132650553Y-89095142D01*
X132638927Y-89086519D01*
X132628202Y-89076798D01*
X132618481Y-89066073D01*
X132609858Y-89054447D01*
X132602417Y-89042031D01*
X132596228Y-89028946D01*
X132591351Y-89015317D01*
X132587834Y-89001276D01*
X132585710Y-88986958D01*
X132585000Y-88972500D01*
X132585000Y-88627500D01*
X132585710Y-88613042D01*
X132587834Y-88598724D01*
X132591351Y-88584683D01*
X132596228Y-88571054D01*
X132602417Y-88557969D01*
X132609858Y-88545553D01*
X132618481Y-88533927D01*
X132628202Y-88523202D01*
X132638927Y-88513481D01*
X132650553Y-88504858D01*
X132662969Y-88497417D01*
X132676054Y-88491228D01*
X132689683Y-88486351D01*
X132703724Y-88482834D01*
X132718042Y-88480710D01*
X132732500Y-88480000D01*
X133027500Y-88480000D01*
X133041958Y-88480710D01*
G37*
G04 #@! TD.AperFunction*
D17*
X140335000Y-82550000D03*
X133350000Y-82550000D03*
X144780000Y-88900000D03*
D18*
X129540000Y-80010000D02*
X120650000Y-80010000D01*
X134620000Y-80010000D02*
X131290000Y-80010000D01*
X131290000Y-82819990D02*
X131300000Y-82829990D01*
X131290000Y-80010000D02*
X131290000Y-82819990D01*
D19*
X131300000Y-85775000D02*
X131325000Y-85800000D01*
X131300000Y-83875000D02*
X131300000Y-85775000D01*
X128340000Y-85800000D02*
X128270000Y-85870000D01*
X131325000Y-85800000D02*
X128340000Y-85800000D01*
X139875000Y-85075000D02*
X141350000Y-86550000D01*
X137200000Y-85075000D02*
X139875000Y-85075000D01*
X141350000Y-86987500D02*
X141350000Y-86550000D01*
X141350000Y-87350000D02*
X141350000Y-86987500D01*
X142500000Y-88500000D02*
X141350000Y-87350000D01*
X142975000Y-88500000D02*
X142500000Y-88500000D01*
X142975000Y-90250000D02*
X143450000Y-90250000D01*
D18*
X142975000Y-90250000D02*
X148275000Y-90250000D01*
X148275000Y-90250000D02*
X149900000Y-88625000D01*
X149900000Y-81105000D02*
X147345000Y-78550000D01*
X149900000Y-88625000D02*
X149900000Y-81105000D01*
X143725000Y-87350000D02*
X141350000Y-84975000D01*
X147345000Y-87350000D02*
X143725000Y-87350000D01*
X141350000Y-84075000D02*
X143225000Y-82200000D01*
X141350000Y-84975000D02*
X141350000Y-84075000D01*
D19*
X135930000Y-78780000D02*
X135890000Y-78740000D01*
X135930000Y-85075000D02*
X135930000Y-78780000D01*
X136809238Y-78740000D02*
X135890000Y-78740000D01*
X141777500Y-78740000D02*
X136809238Y-78740000D01*
X143225000Y-80187500D02*
X141777500Y-78740000D01*
X143225000Y-80625000D02*
X143225000Y-80187500D01*
X137825000Y-80675000D02*
X137160000Y-80010000D01*
X140425000Y-80675000D02*
X137825000Y-80675000D01*
X132190000Y-86770000D02*
X131645000Y-86770000D01*
X133885000Y-85075000D02*
X132190000Y-86770000D01*
X134660000Y-85075000D02*
X133885000Y-85075000D01*
X131645000Y-86770000D02*
X131325000Y-86770000D01*
X132880000Y-88005000D02*
X131645000Y-86770000D01*
X132880000Y-88800000D02*
X132880000Y-88005000D01*
D20*
G36*
X155550001Y-91415000D02*
G01*
X116865000Y-91415000D01*
X116865000Y-86590000D01*
X118511928Y-86590000D01*
X118524188Y-86714482D01*
X118560498Y-86834180D01*
X118619463Y-86944494D01*
X118698815Y-87041185D01*
X118795506Y-87120537D01*
X118905820Y-87179502D01*
X119025518Y-87215812D01*
X119150000Y-87228072D01*
X120364250Y-87225000D01*
X120523000Y-87066250D01*
X120523000Y-85217000D01*
X120777000Y-85217000D01*
X120777000Y-87066250D01*
X120935750Y-87225000D01*
X122150000Y-87228072D01*
X122274482Y-87215812D01*
X122394180Y-87179502D01*
X122504494Y-87120537D01*
X122601185Y-87041185D01*
X122680537Y-86944494D01*
X122739502Y-86834180D01*
X122775812Y-86714482D01*
X122788072Y-86590000D01*
X122785000Y-85375750D01*
X122626250Y-85217000D01*
X120777000Y-85217000D01*
X120523000Y-85217000D01*
X118673750Y-85217000D01*
X118515000Y-85375750D01*
X118511928Y-86590000D01*
X116865000Y-86590000D01*
X116865000Y-83590000D01*
X118511928Y-83590000D01*
X118515000Y-84804250D01*
X118673750Y-84963000D01*
X120523000Y-84963000D01*
X120523000Y-83113750D01*
X120777000Y-83113750D01*
X120777000Y-84963000D01*
X122626250Y-84963000D01*
X122785000Y-84804250D01*
X122788072Y-83590000D01*
X122775812Y-83465518D01*
X122739502Y-83345820D01*
X122685612Y-83245000D01*
X126931928Y-83245000D01*
X126935000Y-83534250D01*
X127093750Y-83693000D01*
X128143000Y-83693000D01*
X128143000Y-82768750D01*
X128397000Y-82768750D01*
X128397000Y-83693000D01*
X129446250Y-83693000D01*
X129605000Y-83534250D01*
X129608072Y-83245000D01*
X129595812Y-83120518D01*
X129559502Y-83000820D01*
X129500537Y-82890506D01*
X129421185Y-82793815D01*
X129324494Y-82714463D01*
X129214180Y-82655498D01*
X129094482Y-82619188D01*
X128970000Y-82606928D01*
X128555750Y-82610000D01*
X128397000Y-82768750D01*
X128143000Y-82768750D01*
X127984250Y-82610000D01*
X127570000Y-82606928D01*
X127445518Y-82619188D01*
X127325820Y-82655498D01*
X127215506Y-82714463D01*
X127118815Y-82793815D01*
X127039463Y-82890506D01*
X126980498Y-83000820D01*
X126944188Y-83120518D01*
X126931928Y-83245000D01*
X122685612Y-83245000D01*
X122680537Y-83235506D01*
X122601185Y-83138815D01*
X122504494Y-83059463D01*
X122394180Y-83000498D01*
X122274482Y-82964188D01*
X122150000Y-82951928D01*
X120935750Y-82955000D01*
X120777000Y-83113750D01*
X120523000Y-83113750D01*
X120364250Y-82955000D01*
X119150000Y-82951928D01*
X119025518Y-82964188D01*
X118905820Y-83000498D01*
X118795506Y-83059463D01*
X118698815Y-83138815D01*
X118619463Y-83235506D01*
X118560498Y-83345820D01*
X118524188Y-83465518D01*
X118511928Y-83590000D01*
X116865000Y-83590000D01*
X116865000Y-79799721D01*
X118515000Y-79799721D01*
X118515000Y-80220279D01*
X118597047Y-80632756D01*
X118757988Y-81021302D01*
X118991637Y-81370983D01*
X119289017Y-81668363D01*
X119638698Y-81902012D01*
X120027244Y-82062953D01*
X120439721Y-82145000D01*
X120860279Y-82145000D01*
X121272756Y-82062953D01*
X121661302Y-81902012D01*
X122010983Y-81668363D01*
X122308363Y-81370983D01*
X122542012Y-81021302D01*
X122594328Y-80895000D01*
X128667954Y-80895000D01*
X128766058Y-80975512D01*
X128917433Y-81056423D01*
X129081684Y-81106248D01*
X129252500Y-81123072D01*
X129827500Y-81123072D01*
X129998316Y-81106248D01*
X130162567Y-81056423D01*
X130313942Y-80975512D01*
X130405000Y-80900782D01*
X130405001Y-82450748D01*
X130401726Y-82456875D01*
X130357023Y-82604243D01*
X130341928Y-82757500D01*
X130341928Y-83052500D01*
X130357023Y-83205757D01*
X130401726Y-83353125D01*
X130421436Y-83390000D01*
X130401726Y-83426875D01*
X130357023Y-83574243D01*
X130341928Y-83727500D01*
X130341928Y-84022500D01*
X130357023Y-84175757D01*
X130401726Y-84323125D01*
X130474321Y-84458940D01*
X130540000Y-84538971D01*
X130540001Y-85040000D01*
X129448874Y-85040000D01*
X129347962Y-84917038D01*
X129341406Y-84911658D01*
X129421185Y-84846185D01*
X129500537Y-84749494D01*
X129559502Y-84639180D01*
X129595812Y-84519482D01*
X129608072Y-84395000D01*
X129605000Y-84105750D01*
X129446250Y-83947000D01*
X128397000Y-83947000D01*
X128397000Y-83967000D01*
X128143000Y-83967000D01*
X128143000Y-83947000D01*
X127093750Y-83947000D01*
X126935000Y-84105750D01*
X126931928Y-84395000D01*
X126944188Y-84519482D01*
X126980498Y-84639180D01*
X127039463Y-84749494D01*
X127118815Y-84846185D01*
X127198594Y-84911658D01*
X127192038Y-84917038D01*
X127081595Y-85051613D01*
X126999528Y-85205149D01*
X126948992Y-85371745D01*
X126931928Y-85544999D01*
X126931928Y-86195001D01*
X126948992Y-86368255D01*
X126999528Y-86534851D01*
X127081595Y-86688387D01*
X127192038Y-86822962D01*
X127326613Y-86933405D01*
X127480149Y-87015472D01*
X127646745Y-87066008D01*
X127819999Y-87083072D01*
X128720001Y-87083072D01*
X128893255Y-87066008D01*
X129059851Y-87015472D01*
X129213387Y-86933405D01*
X129347962Y-86822962D01*
X129458405Y-86688387D01*
X129527030Y-86560000D01*
X130373084Y-86560000D01*
X130366928Y-86622500D01*
X130366928Y-86917500D01*
X130382023Y-87070757D01*
X130426726Y-87218125D01*
X130499321Y-87353940D01*
X130597017Y-87472983D01*
X130716060Y-87570679D01*
X130851875Y-87643274D01*
X130999243Y-87687977D01*
X131152500Y-87703072D01*
X131497500Y-87703072D01*
X131502753Y-87702555D01*
X132048646Y-88248448D01*
X132006726Y-88326875D01*
X131962023Y-88474243D01*
X131946928Y-88627500D01*
X131946928Y-88972500D01*
X131962023Y-89125757D01*
X132006726Y-89273125D01*
X132079321Y-89408940D01*
X132177017Y-89527983D01*
X132296060Y-89625679D01*
X132431875Y-89698274D01*
X132579243Y-89742977D01*
X132732500Y-89758072D01*
X133027500Y-89758072D01*
X133180757Y-89742977D01*
X133303684Y-89705688D01*
X133310820Y-89709502D01*
X133430518Y-89745812D01*
X133555000Y-89758072D01*
X133564250Y-89755000D01*
X133723000Y-89596250D01*
X133723000Y-89329763D01*
X133753274Y-89273125D01*
X133797977Y-89125757D01*
X133813072Y-88972500D01*
X133813072Y-88927000D01*
X133977000Y-88927000D01*
X133977000Y-89596250D01*
X134135750Y-89755000D01*
X134145000Y-89758072D01*
X134269482Y-89745812D01*
X134389180Y-89709502D01*
X134499494Y-89650537D01*
X134596185Y-89571185D01*
X134675537Y-89474494D01*
X134734502Y-89364180D01*
X134770812Y-89244482D01*
X134783072Y-89120000D01*
X134780000Y-89085750D01*
X134621250Y-88927000D01*
X133977000Y-88927000D01*
X133813072Y-88927000D01*
X133813072Y-88627500D01*
X133797977Y-88474243D01*
X133753274Y-88326875D01*
X133723000Y-88270237D01*
X133723000Y-88003750D01*
X133977000Y-88003750D01*
X133977000Y-88673000D01*
X134621250Y-88673000D01*
X134780000Y-88514250D01*
X134783072Y-88480000D01*
X134770812Y-88355518D01*
X134734502Y-88235820D01*
X134675537Y-88125506D01*
X134596185Y-88028815D01*
X134499494Y-87949463D01*
X134389180Y-87890498D01*
X134269482Y-87854188D01*
X134145000Y-87841928D01*
X134135750Y-87845000D01*
X133977000Y-88003750D01*
X133723000Y-88003750D01*
X133634874Y-87915624D01*
X133629003Y-87856014D01*
X133585546Y-87712753D01*
X133514974Y-87580724D01*
X133420001Y-87464999D01*
X133391003Y-87441201D01*
X132992301Y-87042500D01*
X133876872Y-86157929D01*
X134012421Y-86269171D01*
X134213940Y-86376885D01*
X134432600Y-86443215D01*
X134660000Y-86465612D01*
X134887399Y-86443215D01*
X135106059Y-86376885D01*
X135295000Y-86275894D01*
X135483940Y-86376885D01*
X135702600Y-86443215D01*
X135930000Y-86465612D01*
X136157399Y-86443215D01*
X136366098Y-86379907D01*
X136430820Y-86414502D01*
X136550518Y-86450812D01*
X136675000Y-86463072D01*
X137725000Y-86463072D01*
X137849482Y-86450812D01*
X137969180Y-86414502D01*
X138079494Y-86355537D01*
X138176185Y-86276185D01*
X138255537Y-86179494D01*
X138314502Y-86069180D01*
X138350812Y-85949482D01*
X138362087Y-85835000D01*
X139560199Y-85835000D01*
X140236928Y-86511730D01*
X140236928Y-86768750D01*
X140253392Y-86935908D01*
X140302150Y-87096642D01*
X140381329Y-87244775D01*
X140487885Y-87374615D01*
X140597617Y-87464669D01*
X140600997Y-87498985D01*
X140644454Y-87642246D01*
X140715026Y-87774276D01*
X140731586Y-87794454D01*
X140809999Y-87890001D01*
X140839003Y-87913804D01*
X141878232Y-88953034D01*
X141878752Y-88958316D01*
X141928577Y-89122567D01*
X142009488Y-89273942D01*
X142092425Y-89375000D01*
X142009488Y-89476058D01*
X141928577Y-89627433D01*
X141878752Y-89791684D01*
X141861928Y-89962500D01*
X141861928Y-90537500D01*
X141878752Y-90708316D01*
X141928577Y-90872567D01*
X142009488Y-91023942D01*
X142118377Y-91156623D01*
X142251058Y-91265512D01*
X142402433Y-91346423D01*
X142566684Y-91396248D01*
X142737500Y-91413072D01*
X143212500Y-91413072D01*
X143383316Y-91396248D01*
X143547567Y-91346423D01*
X143698942Y-91265512D01*
X143831623Y-91156623D01*
X143849369Y-91135000D01*
X148231531Y-91135000D01*
X148275000Y-91139281D01*
X148318469Y-91135000D01*
X148318477Y-91135000D01*
X148448490Y-91122195D01*
X148615313Y-91071589D01*
X148769059Y-90989411D01*
X148903817Y-90878817D01*
X148931534Y-90845044D01*
X150474682Y-89301897D01*
X150570506Y-89380537D01*
X150680820Y-89439502D01*
X150800518Y-89475812D01*
X150925000Y-89488072D01*
X152139250Y-89485000D01*
X152298000Y-89326250D01*
X152298000Y-87477000D01*
X152552000Y-87477000D01*
X152552000Y-89326250D01*
X152710750Y-89485000D01*
X153925000Y-89488072D01*
X154049482Y-89475812D01*
X154169180Y-89439502D01*
X154279494Y-89380537D01*
X154376185Y-89301185D01*
X154455537Y-89204494D01*
X154514502Y-89094180D01*
X154550812Y-88974482D01*
X154563072Y-88850000D01*
X154560000Y-87635750D01*
X154401250Y-87477000D01*
X152552000Y-87477000D01*
X152298000Y-87477000D01*
X152278000Y-87477000D01*
X152278000Y-87223000D01*
X152298000Y-87223000D01*
X152298000Y-85373750D01*
X152552000Y-85373750D01*
X152552000Y-87223000D01*
X154401250Y-87223000D01*
X154560000Y-87064250D01*
X154563072Y-85850000D01*
X154550812Y-85725518D01*
X154514502Y-85605820D01*
X154455537Y-85495506D01*
X154376185Y-85398815D01*
X154279494Y-85319463D01*
X154169180Y-85260498D01*
X154049482Y-85224188D01*
X153925000Y-85211928D01*
X152710750Y-85215000D01*
X152552000Y-85373750D01*
X152298000Y-85373750D01*
X152139250Y-85215000D01*
X150925000Y-85211928D01*
X150800518Y-85224188D01*
X150785000Y-85228895D01*
X150785000Y-81148469D01*
X150789281Y-81105000D01*
X150785000Y-81061531D01*
X150785000Y-81061523D01*
X150772195Y-80931510D01*
X150761120Y-80895000D01*
X150721589Y-80764686D01*
X150644220Y-80619939D01*
X150680820Y-80639502D01*
X150800518Y-80675812D01*
X150925000Y-80688072D01*
X152139250Y-80685000D01*
X152298000Y-80526250D01*
X152298000Y-78677000D01*
X152552000Y-78677000D01*
X152552000Y-80526250D01*
X152710750Y-80685000D01*
X153925000Y-80688072D01*
X154049482Y-80675812D01*
X154169180Y-80639502D01*
X154279494Y-80580537D01*
X154376185Y-80501185D01*
X154455537Y-80404494D01*
X154514502Y-80294180D01*
X154550812Y-80174482D01*
X154563072Y-80050000D01*
X154560000Y-78835750D01*
X154401250Y-78677000D01*
X152552000Y-78677000D01*
X152298000Y-78677000D01*
X150448750Y-78677000D01*
X150290000Y-78835750D01*
X150286928Y-80050000D01*
X150299188Y-80174482D01*
X150333207Y-80286628D01*
X149345637Y-79299058D01*
X149397953Y-79172756D01*
X149480000Y-78760279D01*
X149480000Y-78339721D01*
X149397953Y-77927244D01*
X149237012Y-77538698D01*
X149003363Y-77189017D01*
X148864346Y-77050000D01*
X150286928Y-77050000D01*
X150290000Y-78264250D01*
X150448750Y-78423000D01*
X152298000Y-78423000D01*
X152298000Y-76573750D01*
X152552000Y-76573750D01*
X152552000Y-78423000D01*
X154401250Y-78423000D01*
X154560000Y-78264250D01*
X154563072Y-77050000D01*
X154550812Y-76925518D01*
X154514502Y-76805820D01*
X154455537Y-76695506D01*
X154376185Y-76598815D01*
X154279494Y-76519463D01*
X154169180Y-76460498D01*
X154049482Y-76424188D01*
X153925000Y-76411928D01*
X152710750Y-76415000D01*
X152552000Y-76573750D01*
X152298000Y-76573750D01*
X152139250Y-76415000D01*
X150925000Y-76411928D01*
X150800518Y-76424188D01*
X150680820Y-76460498D01*
X150570506Y-76519463D01*
X150473815Y-76598815D01*
X150394463Y-76695506D01*
X150335498Y-76805820D01*
X150299188Y-76925518D01*
X150286928Y-77050000D01*
X148864346Y-77050000D01*
X148705983Y-76891637D01*
X148356302Y-76657988D01*
X147967756Y-76497047D01*
X147555279Y-76415000D01*
X147134721Y-76415000D01*
X146722244Y-76497047D01*
X146333698Y-76657988D01*
X145984017Y-76891637D01*
X145686637Y-77189017D01*
X145452988Y-77538698D01*
X145292047Y-77927244D01*
X145210000Y-78339721D01*
X145210000Y-78760279D01*
X145292047Y-79172756D01*
X145452988Y-79561302D01*
X145686637Y-79910983D01*
X145984017Y-80208363D01*
X146333698Y-80442012D01*
X146722244Y-80602953D01*
X147134721Y-80685000D01*
X147555279Y-80685000D01*
X147967756Y-80602953D01*
X148094058Y-80550637D01*
X149015001Y-81471580D01*
X149015000Y-86006434D01*
X149003363Y-85989017D01*
X148705983Y-85691637D01*
X148356302Y-85457988D01*
X147967756Y-85297047D01*
X147555279Y-85215000D01*
X147134721Y-85215000D01*
X146722244Y-85297047D01*
X146333698Y-85457988D01*
X145984017Y-85691637D01*
X145686637Y-85989017D01*
X145452988Y-86338698D01*
X145400672Y-86465000D01*
X144091579Y-86465000D01*
X142463072Y-84836494D01*
X142463072Y-84756250D01*
X142446608Y-84589092D01*
X142397850Y-84428358D01*
X142345730Y-84330848D01*
X143401007Y-83275572D01*
X143481250Y-83275572D01*
X143648408Y-83259108D01*
X143809142Y-83210350D01*
X143957275Y-83131171D01*
X144087115Y-83024615D01*
X144193671Y-82894775D01*
X144272850Y-82746642D01*
X144321608Y-82585908D01*
X144338072Y-82418750D01*
X144338072Y-81981250D01*
X144321608Y-81814092D01*
X144272850Y-81653358D01*
X144193671Y-81505225D01*
X144117574Y-81412500D01*
X144193671Y-81319775D01*
X144272850Y-81171642D01*
X144321608Y-81010908D01*
X144338072Y-80843750D01*
X144338072Y-80406250D01*
X144321608Y-80239092D01*
X144272850Y-80078358D01*
X144193671Y-79930225D01*
X144087115Y-79800385D01*
X143957275Y-79693829D01*
X143809142Y-79614650D01*
X143691164Y-79578862D01*
X142341304Y-78229003D01*
X142317501Y-78199999D01*
X142201776Y-78105026D01*
X142069747Y-78034454D01*
X141926486Y-77990997D01*
X141814833Y-77980000D01*
X141814822Y-77980000D01*
X141777500Y-77976324D01*
X141740178Y-77980000D01*
X136927641Y-77980000D01*
X136888125Y-77920860D01*
X136709140Y-77741875D01*
X136498676Y-77601247D01*
X136264821Y-77504381D01*
X136016561Y-77455000D01*
X135763439Y-77455000D01*
X135515179Y-77504381D01*
X135281324Y-77601247D01*
X135070860Y-77741875D01*
X134891875Y-77920860D01*
X134751247Y-78131324D01*
X134654381Y-78365179D01*
X134605000Y-78613439D01*
X134605000Y-78721928D01*
X133970000Y-78721928D01*
X133845518Y-78734188D01*
X133725820Y-78770498D01*
X133615506Y-78829463D01*
X133518815Y-78908815D01*
X133439463Y-79005506D01*
X133380498Y-79115820D01*
X133377713Y-79125000D01*
X132162046Y-79125000D01*
X132063942Y-79044488D01*
X131912567Y-78963577D01*
X131748316Y-78913752D01*
X131577500Y-78896928D01*
X131002500Y-78896928D01*
X130831684Y-78913752D01*
X130667433Y-78963577D01*
X130516058Y-79044488D01*
X130415000Y-79127425D01*
X130313942Y-79044488D01*
X130162567Y-78963577D01*
X129998316Y-78913752D01*
X129827500Y-78896928D01*
X129252500Y-78896928D01*
X129081684Y-78913752D01*
X128917433Y-78963577D01*
X128766058Y-79044488D01*
X128667954Y-79125000D01*
X122594328Y-79125000D01*
X122542012Y-78998698D01*
X122308363Y-78649017D01*
X122010983Y-78351637D01*
X121661302Y-78117988D01*
X121272756Y-77957047D01*
X120860279Y-77875000D01*
X120439721Y-77875000D01*
X120027244Y-77957047D01*
X119638698Y-78117988D01*
X119289017Y-78351637D01*
X118991637Y-78649017D01*
X118757988Y-78998698D01*
X118597047Y-79387244D01*
X118515000Y-79799721D01*
X116865000Y-79799721D01*
X116865000Y-74320000D01*
X155550000Y-74320000D01*
X155550001Y-91415000D01*
G37*
X155550001Y-91415000D02*
X116865000Y-91415000D01*
X116865000Y-86590000D01*
X118511928Y-86590000D01*
X118524188Y-86714482D01*
X118560498Y-86834180D01*
X118619463Y-86944494D01*
X118698815Y-87041185D01*
X118795506Y-87120537D01*
X118905820Y-87179502D01*
X119025518Y-87215812D01*
X119150000Y-87228072D01*
X120364250Y-87225000D01*
X120523000Y-87066250D01*
X120523000Y-85217000D01*
X120777000Y-85217000D01*
X120777000Y-87066250D01*
X120935750Y-87225000D01*
X122150000Y-87228072D01*
X122274482Y-87215812D01*
X122394180Y-87179502D01*
X122504494Y-87120537D01*
X122601185Y-87041185D01*
X122680537Y-86944494D01*
X122739502Y-86834180D01*
X122775812Y-86714482D01*
X122788072Y-86590000D01*
X122785000Y-85375750D01*
X122626250Y-85217000D01*
X120777000Y-85217000D01*
X120523000Y-85217000D01*
X118673750Y-85217000D01*
X118515000Y-85375750D01*
X118511928Y-86590000D01*
X116865000Y-86590000D01*
X116865000Y-83590000D01*
X118511928Y-83590000D01*
X118515000Y-84804250D01*
X118673750Y-84963000D01*
X120523000Y-84963000D01*
X120523000Y-83113750D01*
X120777000Y-83113750D01*
X120777000Y-84963000D01*
X122626250Y-84963000D01*
X122785000Y-84804250D01*
X122788072Y-83590000D01*
X122775812Y-83465518D01*
X122739502Y-83345820D01*
X122685612Y-83245000D01*
X126931928Y-83245000D01*
X126935000Y-83534250D01*
X127093750Y-83693000D01*
X128143000Y-83693000D01*
X128143000Y-82768750D01*
X128397000Y-82768750D01*
X128397000Y-83693000D01*
X129446250Y-83693000D01*
X129605000Y-83534250D01*
X129608072Y-83245000D01*
X129595812Y-83120518D01*
X129559502Y-83000820D01*
X129500537Y-82890506D01*
X129421185Y-82793815D01*
X129324494Y-82714463D01*
X129214180Y-82655498D01*
X129094482Y-82619188D01*
X128970000Y-82606928D01*
X128555750Y-82610000D01*
X128397000Y-82768750D01*
X128143000Y-82768750D01*
X127984250Y-82610000D01*
X127570000Y-82606928D01*
X127445518Y-82619188D01*
X127325820Y-82655498D01*
X127215506Y-82714463D01*
X127118815Y-82793815D01*
X127039463Y-82890506D01*
X126980498Y-83000820D01*
X126944188Y-83120518D01*
X126931928Y-83245000D01*
X122685612Y-83245000D01*
X122680537Y-83235506D01*
X122601185Y-83138815D01*
X122504494Y-83059463D01*
X122394180Y-83000498D01*
X122274482Y-82964188D01*
X122150000Y-82951928D01*
X120935750Y-82955000D01*
X120777000Y-83113750D01*
X120523000Y-83113750D01*
X120364250Y-82955000D01*
X119150000Y-82951928D01*
X119025518Y-82964188D01*
X118905820Y-83000498D01*
X118795506Y-83059463D01*
X118698815Y-83138815D01*
X118619463Y-83235506D01*
X118560498Y-83345820D01*
X118524188Y-83465518D01*
X118511928Y-83590000D01*
X116865000Y-83590000D01*
X116865000Y-79799721D01*
X118515000Y-79799721D01*
X118515000Y-80220279D01*
X118597047Y-80632756D01*
X118757988Y-81021302D01*
X118991637Y-81370983D01*
X119289017Y-81668363D01*
X119638698Y-81902012D01*
X120027244Y-82062953D01*
X120439721Y-82145000D01*
X120860279Y-82145000D01*
X121272756Y-82062953D01*
X121661302Y-81902012D01*
X122010983Y-81668363D01*
X122308363Y-81370983D01*
X122542012Y-81021302D01*
X122594328Y-80895000D01*
X128667954Y-80895000D01*
X128766058Y-80975512D01*
X128917433Y-81056423D01*
X129081684Y-81106248D01*
X129252500Y-81123072D01*
X129827500Y-81123072D01*
X129998316Y-81106248D01*
X130162567Y-81056423D01*
X130313942Y-80975512D01*
X130405000Y-80900782D01*
X130405001Y-82450748D01*
X130401726Y-82456875D01*
X130357023Y-82604243D01*
X130341928Y-82757500D01*
X130341928Y-83052500D01*
X130357023Y-83205757D01*
X130401726Y-83353125D01*
X130421436Y-83390000D01*
X130401726Y-83426875D01*
X130357023Y-83574243D01*
X130341928Y-83727500D01*
X130341928Y-84022500D01*
X130357023Y-84175757D01*
X130401726Y-84323125D01*
X130474321Y-84458940D01*
X130540000Y-84538971D01*
X130540001Y-85040000D01*
X129448874Y-85040000D01*
X129347962Y-84917038D01*
X129341406Y-84911658D01*
X129421185Y-84846185D01*
X129500537Y-84749494D01*
X129559502Y-84639180D01*
X129595812Y-84519482D01*
X129608072Y-84395000D01*
X129605000Y-84105750D01*
X129446250Y-83947000D01*
X128397000Y-83947000D01*
X128397000Y-83967000D01*
X128143000Y-83967000D01*
X128143000Y-83947000D01*
X127093750Y-83947000D01*
X126935000Y-84105750D01*
X126931928Y-84395000D01*
X126944188Y-84519482D01*
X126980498Y-84639180D01*
X127039463Y-84749494D01*
X127118815Y-84846185D01*
X127198594Y-84911658D01*
X127192038Y-84917038D01*
X127081595Y-85051613D01*
X126999528Y-85205149D01*
X126948992Y-85371745D01*
X126931928Y-85544999D01*
X126931928Y-86195001D01*
X126948992Y-86368255D01*
X126999528Y-86534851D01*
X127081595Y-86688387D01*
X127192038Y-86822962D01*
X127326613Y-86933405D01*
X127480149Y-87015472D01*
X127646745Y-87066008D01*
X127819999Y-87083072D01*
X128720001Y-87083072D01*
X128893255Y-87066008D01*
X129059851Y-87015472D01*
X129213387Y-86933405D01*
X129347962Y-86822962D01*
X129458405Y-86688387D01*
X129527030Y-86560000D01*
X130373084Y-86560000D01*
X130366928Y-86622500D01*
X130366928Y-86917500D01*
X130382023Y-87070757D01*
X130426726Y-87218125D01*
X130499321Y-87353940D01*
X130597017Y-87472983D01*
X130716060Y-87570679D01*
X130851875Y-87643274D01*
X130999243Y-87687977D01*
X131152500Y-87703072D01*
X131497500Y-87703072D01*
X131502753Y-87702555D01*
X132048646Y-88248448D01*
X132006726Y-88326875D01*
X131962023Y-88474243D01*
X131946928Y-88627500D01*
X131946928Y-88972500D01*
X131962023Y-89125757D01*
X132006726Y-89273125D01*
X132079321Y-89408940D01*
X132177017Y-89527983D01*
X132296060Y-89625679D01*
X132431875Y-89698274D01*
X132579243Y-89742977D01*
X132732500Y-89758072D01*
X133027500Y-89758072D01*
X133180757Y-89742977D01*
X133303684Y-89705688D01*
X133310820Y-89709502D01*
X133430518Y-89745812D01*
X133555000Y-89758072D01*
X133564250Y-89755000D01*
X133723000Y-89596250D01*
X133723000Y-89329763D01*
X133753274Y-89273125D01*
X133797977Y-89125757D01*
X133813072Y-88972500D01*
X133813072Y-88927000D01*
X133977000Y-88927000D01*
X133977000Y-89596250D01*
X134135750Y-89755000D01*
X134145000Y-89758072D01*
X134269482Y-89745812D01*
X134389180Y-89709502D01*
X134499494Y-89650537D01*
X134596185Y-89571185D01*
X134675537Y-89474494D01*
X134734502Y-89364180D01*
X134770812Y-89244482D01*
X134783072Y-89120000D01*
X134780000Y-89085750D01*
X134621250Y-88927000D01*
X133977000Y-88927000D01*
X133813072Y-88927000D01*
X133813072Y-88627500D01*
X133797977Y-88474243D01*
X133753274Y-88326875D01*
X133723000Y-88270237D01*
X133723000Y-88003750D01*
X133977000Y-88003750D01*
X133977000Y-88673000D01*
X134621250Y-88673000D01*
X134780000Y-88514250D01*
X134783072Y-88480000D01*
X134770812Y-88355518D01*
X134734502Y-88235820D01*
X134675537Y-88125506D01*
X134596185Y-88028815D01*
X134499494Y-87949463D01*
X134389180Y-87890498D01*
X134269482Y-87854188D01*
X134145000Y-87841928D01*
X134135750Y-87845000D01*
X133977000Y-88003750D01*
X133723000Y-88003750D01*
X133634874Y-87915624D01*
X133629003Y-87856014D01*
X133585546Y-87712753D01*
X133514974Y-87580724D01*
X133420001Y-87464999D01*
X133391003Y-87441201D01*
X132992301Y-87042500D01*
X133876872Y-86157929D01*
X134012421Y-86269171D01*
X134213940Y-86376885D01*
X134432600Y-86443215D01*
X134660000Y-86465612D01*
X134887399Y-86443215D01*
X135106059Y-86376885D01*
X135295000Y-86275894D01*
X135483940Y-86376885D01*
X135702600Y-86443215D01*
X135930000Y-86465612D01*
X136157399Y-86443215D01*
X136366098Y-86379907D01*
X136430820Y-86414502D01*
X136550518Y-86450812D01*
X136675000Y-86463072D01*
X137725000Y-86463072D01*
X137849482Y-86450812D01*
X137969180Y-86414502D01*
X138079494Y-86355537D01*
X138176185Y-86276185D01*
X138255537Y-86179494D01*
X138314502Y-86069180D01*
X138350812Y-85949482D01*
X138362087Y-85835000D01*
X139560199Y-85835000D01*
X140236928Y-86511730D01*
X140236928Y-86768750D01*
X140253392Y-86935908D01*
X140302150Y-87096642D01*
X140381329Y-87244775D01*
X140487885Y-87374615D01*
X140597617Y-87464669D01*
X140600997Y-87498985D01*
X140644454Y-87642246D01*
X140715026Y-87774276D01*
X140731586Y-87794454D01*
X140809999Y-87890001D01*
X140839003Y-87913804D01*
X141878232Y-88953034D01*
X141878752Y-88958316D01*
X141928577Y-89122567D01*
X142009488Y-89273942D01*
X142092425Y-89375000D01*
X142009488Y-89476058D01*
X141928577Y-89627433D01*
X141878752Y-89791684D01*
X141861928Y-89962500D01*
X141861928Y-90537500D01*
X141878752Y-90708316D01*
X141928577Y-90872567D01*
X142009488Y-91023942D01*
X142118377Y-91156623D01*
X142251058Y-91265512D01*
X142402433Y-91346423D01*
X142566684Y-91396248D01*
X142737500Y-91413072D01*
X143212500Y-91413072D01*
X143383316Y-91396248D01*
X143547567Y-91346423D01*
X143698942Y-91265512D01*
X143831623Y-91156623D01*
X143849369Y-91135000D01*
X148231531Y-91135000D01*
X148275000Y-91139281D01*
X148318469Y-91135000D01*
X148318477Y-91135000D01*
X148448490Y-91122195D01*
X148615313Y-91071589D01*
X148769059Y-90989411D01*
X148903817Y-90878817D01*
X148931534Y-90845044D01*
X150474682Y-89301897D01*
X150570506Y-89380537D01*
X150680820Y-89439502D01*
X150800518Y-89475812D01*
X150925000Y-89488072D01*
X152139250Y-89485000D01*
X152298000Y-89326250D01*
X152298000Y-87477000D01*
X152552000Y-87477000D01*
X152552000Y-89326250D01*
X152710750Y-89485000D01*
X153925000Y-89488072D01*
X154049482Y-89475812D01*
X154169180Y-89439502D01*
X154279494Y-89380537D01*
X154376185Y-89301185D01*
X154455537Y-89204494D01*
X154514502Y-89094180D01*
X154550812Y-88974482D01*
X154563072Y-88850000D01*
X154560000Y-87635750D01*
X154401250Y-87477000D01*
X152552000Y-87477000D01*
X152298000Y-87477000D01*
X152278000Y-87477000D01*
X152278000Y-87223000D01*
X152298000Y-87223000D01*
X152298000Y-85373750D01*
X152552000Y-85373750D01*
X152552000Y-87223000D01*
X154401250Y-87223000D01*
X154560000Y-87064250D01*
X154563072Y-85850000D01*
X154550812Y-85725518D01*
X154514502Y-85605820D01*
X154455537Y-85495506D01*
X154376185Y-85398815D01*
X154279494Y-85319463D01*
X154169180Y-85260498D01*
X154049482Y-85224188D01*
X153925000Y-85211928D01*
X152710750Y-85215000D01*
X152552000Y-85373750D01*
X152298000Y-85373750D01*
X152139250Y-85215000D01*
X150925000Y-85211928D01*
X150800518Y-85224188D01*
X150785000Y-85228895D01*
X150785000Y-81148469D01*
X150789281Y-81105000D01*
X150785000Y-81061531D01*
X150785000Y-81061523D01*
X150772195Y-80931510D01*
X150761120Y-80895000D01*
X150721589Y-80764686D01*
X150644220Y-80619939D01*
X150680820Y-80639502D01*
X150800518Y-80675812D01*
X150925000Y-80688072D01*
X152139250Y-80685000D01*
X152298000Y-80526250D01*
X152298000Y-78677000D01*
X152552000Y-78677000D01*
X152552000Y-80526250D01*
X152710750Y-80685000D01*
X153925000Y-80688072D01*
X154049482Y-80675812D01*
X154169180Y-80639502D01*
X154279494Y-80580537D01*
X154376185Y-80501185D01*
X154455537Y-80404494D01*
X154514502Y-80294180D01*
X154550812Y-80174482D01*
X154563072Y-80050000D01*
X154560000Y-78835750D01*
X154401250Y-78677000D01*
X152552000Y-78677000D01*
X152298000Y-78677000D01*
X150448750Y-78677000D01*
X150290000Y-78835750D01*
X150286928Y-80050000D01*
X150299188Y-80174482D01*
X150333207Y-80286628D01*
X149345637Y-79299058D01*
X149397953Y-79172756D01*
X149480000Y-78760279D01*
X149480000Y-78339721D01*
X149397953Y-77927244D01*
X149237012Y-77538698D01*
X149003363Y-77189017D01*
X148864346Y-77050000D01*
X150286928Y-77050000D01*
X150290000Y-78264250D01*
X150448750Y-78423000D01*
X152298000Y-78423000D01*
X152298000Y-76573750D01*
X152552000Y-76573750D01*
X152552000Y-78423000D01*
X154401250Y-78423000D01*
X154560000Y-78264250D01*
X154563072Y-77050000D01*
X154550812Y-76925518D01*
X154514502Y-76805820D01*
X154455537Y-76695506D01*
X154376185Y-76598815D01*
X154279494Y-76519463D01*
X154169180Y-76460498D01*
X154049482Y-76424188D01*
X153925000Y-76411928D01*
X152710750Y-76415000D01*
X152552000Y-76573750D01*
X152298000Y-76573750D01*
X152139250Y-76415000D01*
X150925000Y-76411928D01*
X150800518Y-76424188D01*
X150680820Y-76460498D01*
X150570506Y-76519463D01*
X150473815Y-76598815D01*
X150394463Y-76695506D01*
X150335498Y-76805820D01*
X150299188Y-76925518D01*
X150286928Y-77050000D01*
X148864346Y-77050000D01*
X148705983Y-76891637D01*
X148356302Y-76657988D01*
X147967756Y-76497047D01*
X147555279Y-76415000D01*
X147134721Y-76415000D01*
X146722244Y-76497047D01*
X146333698Y-76657988D01*
X145984017Y-76891637D01*
X145686637Y-77189017D01*
X145452988Y-77538698D01*
X145292047Y-77927244D01*
X145210000Y-78339721D01*
X145210000Y-78760279D01*
X145292047Y-79172756D01*
X145452988Y-79561302D01*
X145686637Y-79910983D01*
X145984017Y-80208363D01*
X146333698Y-80442012D01*
X146722244Y-80602953D01*
X147134721Y-80685000D01*
X147555279Y-80685000D01*
X147967756Y-80602953D01*
X148094058Y-80550637D01*
X149015001Y-81471580D01*
X149015000Y-86006434D01*
X149003363Y-85989017D01*
X148705983Y-85691637D01*
X148356302Y-85457988D01*
X147967756Y-85297047D01*
X147555279Y-85215000D01*
X147134721Y-85215000D01*
X146722244Y-85297047D01*
X146333698Y-85457988D01*
X145984017Y-85691637D01*
X145686637Y-85989017D01*
X145452988Y-86338698D01*
X145400672Y-86465000D01*
X144091579Y-86465000D01*
X142463072Y-84836494D01*
X142463072Y-84756250D01*
X142446608Y-84589092D01*
X142397850Y-84428358D01*
X142345730Y-84330848D01*
X143401007Y-83275572D01*
X143481250Y-83275572D01*
X143648408Y-83259108D01*
X143809142Y-83210350D01*
X143957275Y-83131171D01*
X144087115Y-83024615D01*
X144193671Y-82894775D01*
X144272850Y-82746642D01*
X144321608Y-82585908D01*
X144338072Y-82418750D01*
X144338072Y-81981250D01*
X144321608Y-81814092D01*
X144272850Y-81653358D01*
X144193671Y-81505225D01*
X144117574Y-81412500D01*
X144193671Y-81319775D01*
X144272850Y-81171642D01*
X144321608Y-81010908D01*
X144338072Y-80843750D01*
X144338072Y-80406250D01*
X144321608Y-80239092D01*
X144272850Y-80078358D01*
X144193671Y-79930225D01*
X144087115Y-79800385D01*
X143957275Y-79693829D01*
X143809142Y-79614650D01*
X143691164Y-79578862D01*
X142341304Y-78229003D01*
X142317501Y-78199999D01*
X142201776Y-78105026D01*
X142069747Y-78034454D01*
X141926486Y-77990997D01*
X141814833Y-77980000D01*
X141814822Y-77980000D01*
X141777500Y-77976324D01*
X141740178Y-77980000D01*
X136927641Y-77980000D01*
X136888125Y-77920860D01*
X136709140Y-77741875D01*
X136498676Y-77601247D01*
X136264821Y-77504381D01*
X136016561Y-77455000D01*
X135763439Y-77455000D01*
X135515179Y-77504381D01*
X135281324Y-77601247D01*
X135070860Y-77741875D01*
X134891875Y-77920860D01*
X134751247Y-78131324D01*
X134654381Y-78365179D01*
X134605000Y-78613439D01*
X134605000Y-78721928D01*
X133970000Y-78721928D01*
X133845518Y-78734188D01*
X133725820Y-78770498D01*
X133615506Y-78829463D01*
X133518815Y-78908815D01*
X133439463Y-79005506D01*
X133380498Y-79115820D01*
X133377713Y-79125000D01*
X132162046Y-79125000D01*
X132063942Y-79044488D01*
X131912567Y-78963577D01*
X131748316Y-78913752D01*
X131577500Y-78896928D01*
X131002500Y-78896928D01*
X130831684Y-78913752D01*
X130667433Y-78963577D01*
X130516058Y-79044488D01*
X130415000Y-79127425D01*
X130313942Y-79044488D01*
X130162567Y-78963577D01*
X129998316Y-78913752D01*
X129827500Y-78896928D01*
X129252500Y-78896928D01*
X129081684Y-78913752D01*
X128917433Y-78963577D01*
X128766058Y-79044488D01*
X128667954Y-79125000D01*
X122594328Y-79125000D01*
X122542012Y-78998698D01*
X122308363Y-78649017D01*
X122010983Y-78351637D01*
X121661302Y-78117988D01*
X121272756Y-77957047D01*
X120860279Y-77875000D01*
X120439721Y-77875000D01*
X120027244Y-77957047D01*
X119638698Y-78117988D01*
X119289017Y-78351637D01*
X118991637Y-78649017D01*
X118757988Y-78998698D01*
X118597047Y-79387244D01*
X118515000Y-79799721D01*
X116865000Y-79799721D01*
X116865000Y-74320000D01*
X155550000Y-74320000D01*
X155550001Y-91415000D01*
G36*
X145452988Y-88361302D02*
G01*
X145686637Y-88710983D01*
X145984017Y-89008363D01*
X146333698Y-89242012D01*
X146630617Y-89365000D01*
X143865782Y-89365000D01*
X143940512Y-89273942D01*
X144021423Y-89122567D01*
X144071248Y-88958316D01*
X144088072Y-88787500D01*
X144088072Y-88235000D01*
X145400672Y-88235000D01*
X145452988Y-88361302D01*
G37*
X145452988Y-88361302D02*
X145686637Y-88710983D01*
X145984017Y-89008363D01*
X146333698Y-89242012D01*
X146630617Y-89365000D01*
X143865782Y-89365000D01*
X143940512Y-89273942D01*
X144021423Y-89122567D01*
X144071248Y-88958316D01*
X144088072Y-88787500D01*
X144088072Y-88235000D01*
X145400672Y-88235000D01*
X145452988Y-88361302D01*
G36*
X133380498Y-80904180D02*
G01*
X133439463Y-81014494D01*
X133518815Y-81111185D01*
X133615506Y-81190537D01*
X133725820Y-81249502D01*
X133845518Y-81285812D01*
X133970000Y-81298072D01*
X135170001Y-81298072D01*
X135170000Y-83807292D01*
X135106060Y-83773115D01*
X134887400Y-83706785D01*
X134660000Y-83684388D01*
X134432601Y-83706785D01*
X134213941Y-83773115D01*
X134012422Y-83880829D01*
X133835789Y-84025788D01*
X133690830Y-84202421D01*
X133603250Y-84366270D01*
X133592753Y-84369454D01*
X133460723Y-84440026D01*
X133377083Y-84508668D01*
X133344999Y-84534999D01*
X133321201Y-84563997D01*
X132278555Y-85606643D01*
X132267977Y-85499243D01*
X132223274Y-85351875D01*
X132150679Y-85216060D01*
X132060000Y-85105567D01*
X132060000Y-84538970D01*
X132125679Y-84458940D01*
X132198274Y-84323125D01*
X132242977Y-84175757D01*
X132258072Y-84022500D01*
X132258072Y-83727500D01*
X132242977Y-83574243D01*
X132198274Y-83426875D01*
X132178564Y-83390000D01*
X132198274Y-83353125D01*
X132242977Y-83205757D01*
X132258072Y-83052500D01*
X132258072Y-82757500D01*
X132242977Y-82604243D01*
X132198274Y-82456875D01*
X132175000Y-82413333D01*
X132175000Y-80895000D01*
X133377713Y-80895000D01*
X133380498Y-80904180D01*
G37*
X133380498Y-80904180D02*
X133439463Y-81014494D01*
X133518815Y-81111185D01*
X133615506Y-81190537D01*
X133725820Y-81249502D01*
X133845518Y-81285812D01*
X133970000Y-81298072D01*
X135170001Y-81298072D01*
X135170000Y-83807292D01*
X135106060Y-83773115D01*
X134887400Y-83706785D01*
X134660000Y-83684388D01*
X134432601Y-83706785D01*
X134213941Y-83773115D01*
X134012422Y-83880829D01*
X133835789Y-84025788D01*
X133690830Y-84202421D01*
X133603250Y-84366270D01*
X133592753Y-84369454D01*
X133460723Y-84440026D01*
X133377083Y-84508668D01*
X133344999Y-84534999D01*
X133321201Y-84563997D01*
X132278555Y-85606643D01*
X132267977Y-85499243D01*
X132223274Y-85351875D01*
X132150679Y-85216060D01*
X132060000Y-85105567D01*
X132060000Y-84538970D01*
X132125679Y-84458940D01*
X132198274Y-84323125D01*
X132242977Y-84175757D01*
X132258072Y-84022500D01*
X132258072Y-83727500D01*
X132242977Y-83574243D01*
X132198274Y-83426875D01*
X132178564Y-83390000D01*
X132198274Y-83353125D01*
X132242977Y-83205757D01*
X132258072Y-83052500D01*
X132258072Y-82757500D01*
X132242977Y-82604243D01*
X132198274Y-82456875D01*
X132175000Y-82413333D01*
X132175000Y-80895000D01*
X133377713Y-80895000D01*
X133380498Y-80904180D01*
G36*
X142145475Y-80182777D02*
G01*
X142128392Y-80239092D01*
X142111928Y-80406250D01*
X142111928Y-80843750D01*
X142128392Y-81010908D01*
X142177150Y-81171642D01*
X142256329Y-81319775D01*
X142332426Y-81412500D01*
X142256329Y-81505225D01*
X142177150Y-81653358D01*
X142128392Y-81814092D01*
X142111928Y-81981250D01*
X142111928Y-82061493D01*
X141537037Y-82636384D01*
X141535000Y-82535750D01*
X141376250Y-82377000D01*
X140552000Y-82377000D01*
X140552000Y-83163750D01*
X140710750Y-83322500D01*
X140848683Y-83324739D01*
X140754951Y-83418471D01*
X140721184Y-83446183D01*
X140693471Y-83479951D01*
X140693468Y-83479954D01*
X140610590Y-83580941D01*
X140528412Y-83734687D01*
X140477805Y-83901510D01*
X140476389Y-83915892D01*
X140465000Y-84031523D01*
X140465000Y-84031531D01*
X140460719Y-84075000D01*
X140465000Y-84118469D01*
X140465000Y-84178271D01*
X140381329Y-84280225D01*
X140302150Y-84428358D01*
X140298703Y-84439720D01*
X140167247Y-84369454D01*
X140023986Y-84325997D01*
X139912333Y-84315000D01*
X139912322Y-84315000D01*
X139875000Y-84311324D01*
X139837678Y-84315000D01*
X138362087Y-84315000D01*
X138350812Y-84200518D01*
X138314502Y-84080820D01*
X138255537Y-83970506D01*
X138176185Y-83873815D01*
X138079494Y-83794463D01*
X137969180Y-83735498D01*
X137849482Y-83699188D01*
X137725000Y-83686928D01*
X136690000Y-83686928D01*
X136690000Y-82687500D01*
X139311928Y-82687500D01*
X139324188Y-82811982D01*
X139360498Y-82931680D01*
X139419463Y-83041994D01*
X139498815Y-83138685D01*
X139595506Y-83218037D01*
X139705820Y-83277002D01*
X139825518Y-83313312D01*
X139950000Y-83325572D01*
X140139250Y-83322500D01*
X140298000Y-83163750D01*
X140298000Y-82377000D01*
X139473750Y-82377000D01*
X139315000Y-82535750D01*
X139311928Y-82687500D01*
X136690000Y-82687500D01*
X136690000Y-81206195D01*
X136785179Y-81245619D01*
X137033439Y-81295000D01*
X137286561Y-81295000D01*
X137363765Y-81279643D01*
X137400723Y-81309974D01*
X137449882Y-81336250D01*
X137532753Y-81380546D01*
X137676014Y-81424003D01*
X137787667Y-81435000D01*
X137787677Y-81435000D01*
X137824999Y-81438676D01*
X137862322Y-81435000D01*
X139438343Y-81435000D01*
X139419463Y-81458006D01*
X139360498Y-81568320D01*
X139324188Y-81688018D01*
X139311928Y-81812500D01*
X139315000Y-81964250D01*
X139473750Y-82123000D01*
X140298000Y-82123000D01*
X140298000Y-82103000D01*
X140552000Y-82103000D01*
X140552000Y-82123000D01*
X141376250Y-82123000D01*
X141535000Y-81964250D01*
X141538072Y-81812500D01*
X141525812Y-81688018D01*
X141489502Y-81568320D01*
X141430537Y-81458006D01*
X141375900Y-81391430D01*
X141393671Y-81369775D01*
X141472850Y-81221642D01*
X141521608Y-81060908D01*
X141538072Y-80893750D01*
X141538072Y-80456250D01*
X141521608Y-80289092D01*
X141472850Y-80128358D01*
X141393671Y-79980225D01*
X141287115Y-79850385D01*
X141157275Y-79743829D01*
X141009142Y-79664650D01*
X140848408Y-79615892D01*
X140681250Y-79599428D01*
X140168750Y-79599428D01*
X140001592Y-79615892D01*
X139840858Y-79664650D01*
X139692725Y-79743829D01*
X139562885Y-79850385D01*
X139509857Y-79915000D01*
X138445000Y-79915000D01*
X138445000Y-79883439D01*
X138395619Y-79635179D01*
X138339626Y-79500000D01*
X141462699Y-79500000D01*
X142145475Y-80182777D01*
G37*
X142145475Y-80182777D02*
X142128392Y-80239092D01*
X142111928Y-80406250D01*
X142111928Y-80843750D01*
X142128392Y-81010908D01*
X142177150Y-81171642D01*
X142256329Y-81319775D01*
X142332426Y-81412500D01*
X142256329Y-81505225D01*
X142177150Y-81653358D01*
X142128392Y-81814092D01*
X142111928Y-81981250D01*
X142111928Y-82061493D01*
X141537037Y-82636384D01*
X141535000Y-82535750D01*
X141376250Y-82377000D01*
X140552000Y-82377000D01*
X140552000Y-83163750D01*
X140710750Y-83322500D01*
X140848683Y-83324739D01*
X140754951Y-83418471D01*
X140721184Y-83446183D01*
X140693471Y-83479951D01*
X140693468Y-83479954D01*
X140610590Y-83580941D01*
X140528412Y-83734687D01*
X140477805Y-83901510D01*
X140476389Y-83915892D01*
X140465000Y-84031523D01*
X140465000Y-84031531D01*
X140460719Y-84075000D01*
X140465000Y-84118469D01*
X140465000Y-84178271D01*
X140381329Y-84280225D01*
X140302150Y-84428358D01*
X140298703Y-84439720D01*
X140167247Y-84369454D01*
X140023986Y-84325997D01*
X139912333Y-84315000D01*
X139912322Y-84315000D01*
X139875000Y-84311324D01*
X139837678Y-84315000D01*
X138362087Y-84315000D01*
X138350812Y-84200518D01*
X138314502Y-84080820D01*
X138255537Y-83970506D01*
X138176185Y-83873815D01*
X138079494Y-83794463D01*
X137969180Y-83735498D01*
X137849482Y-83699188D01*
X137725000Y-83686928D01*
X136690000Y-83686928D01*
X136690000Y-82687500D01*
X139311928Y-82687500D01*
X139324188Y-82811982D01*
X139360498Y-82931680D01*
X139419463Y-83041994D01*
X139498815Y-83138685D01*
X139595506Y-83218037D01*
X139705820Y-83277002D01*
X139825518Y-83313312D01*
X139950000Y-83325572D01*
X140139250Y-83322500D01*
X140298000Y-83163750D01*
X140298000Y-82377000D01*
X139473750Y-82377000D01*
X139315000Y-82535750D01*
X139311928Y-82687500D01*
X136690000Y-82687500D01*
X136690000Y-81206195D01*
X136785179Y-81245619D01*
X137033439Y-81295000D01*
X137286561Y-81295000D01*
X137363765Y-81279643D01*
X137400723Y-81309974D01*
X137449882Y-81336250D01*
X137532753Y-81380546D01*
X137676014Y-81424003D01*
X137787667Y-81435000D01*
X137787677Y-81435000D01*
X137824999Y-81438676D01*
X137862322Y-81435000D01*
X139438343Y-81435000D01*
X139419463Y-81458006D01*
X139360498Y-81568320D01*
X139324188Y-81688018D01*
X139311928Y-81812500D01*
X139315000Y-81964250D01*
X139473750Y-82123000D01*
X140298000Y-82123000D01*
X140298000Y-82103000D01*
X140552000Y-82103000D01*
X140552000Y-82123000D01*
X141376250Y-82123000D01*
X141535000Y-81964250D01*
X141538072Y-81812500D01*
X141525812Y-81688018D01*
X141489502Y-81568320D01*
X141430537Y-81458006D01*
X141375900Y-81391430D01*
X141393671Y-81369775D01*
X141472850Y-81221642D01*
X141521608Y-81060908D01*
X141538072Y-80893750D01*
X141538072Y-80456250D01*
X141521608Y-80289092D01*
X141472850Y-80128358D01*
X141393671Y-79980225D01*
X141287115Y-79850385D01*
X141157275Y-79743829D01*
X141009142Y-79664650D01*
X140848408Y-79615892D01*
X140681250Y-79599428D01*
X140168750Y-79599428D01*
X140001592Y-79615892D01*
X139840858Y-79664650D01*
X139692725Y-79743829D01*
X139562885Y-79850385D01*
X139509857Y-79915000D01*
X138445000Y-79915000D01*
X138445000Y-79883439D01*
X138395619Y-79635179D01*
X138339626Y-79500000D01*
X141462699Y-79500000D01*
X142145475Y-80182777D01*
M02*
