G04 #@! TF.GenerationSoftware,KiCad,Pcbnew,(5.1.5)-3*
G04 #@! TF.CreationDate,2020-12-11T12:36:31+02:00*
G04 #@! TF.ProjectId,Single_transistor_AMP,53696e67-6c65-45f7-9472-616e73697374,V1.0*
G04 #@! TF.SameCoordinates,Original*
G04 #@! TF.FileFunction,Legend,Top*
G04 #@! TF.FilePolarity,Positive*
%FSLAX46Y46*%
G04 Gerber Fmt 4.6, Leading zero omitted, Abs format (unit mm)*
G04 Created by KiCad (PCBNEW (5.1.5)-3) date 2020-12-11 12:36:31*
%MOMM*%
%LPD*%
G04 APERTURE LIST*
%ADD10C,0.120000*%
%ADD11C,0.150000*%
G04 APERTURE END LIST*
D10*
X130586267Y-80520000D02*
X130243733Y-80520000D01*
X130586267Y-79500000D02*
X130243733Y-79500000D01*
X127560000Y-85106252D02*
X127560000Y-84583748D01*
X128980000Y-85106252D02*
X128980000Y-84583748D01*
X143485000Y-89546267D02*
X143485000Y-89203733D01*
X142465000Y-89546267D02*
X142465000Y-89203733D01*
X123190000Y-77470000D02*
X123190000Y-87630000D01*
X124460000Y-77470000D02*
X116840000Y-77470000D01*
X116840000Y-77470000D02*
X116840000Y-87630000D01*
X116840000Y-87630000D02*
X124460000Y-87630000D01*
X124460000Y-87630000D02*
X124460000Y-77470000D01*
X154965000Y-74740000D02*
X144805000Y-74740000D01*
X154965000Y-82360000D02*
X154965000Y-74740000D01*
X144805000Y-82360000D02*
X154965000Y-82360000D01*
X144805000Y-74740000D02*
X144805000Y-82360000D01*
X144805000Y-76010000D02*
X154965000Y-76010000D01*
X144805000Y-84810000D02*
X154965000Y-84810000D01*
X144805000Y-83540000D02*
X144805000Y-91160000D01*
X144805000Y-91160000D02*
X154965000Y-91160000D01*
X154965000Y-91160000D02*
X154965000Y-83540000D01*
X154965000Y-83540000D02*
X144805000Y-83540000D01*
X134090000Y-81860000D02*
X137690000Y-81860000D01*
X134051522Y-81848478D02*
G75*
G02X135890000Y-77410000I1838478J1838478D01*
G01*
X137728478Y-81848478D02*
G75*
G03X135890000Y-77410000I-1838478J1838478D01*
G01*
X137730000Y-83225000D02*
X134130000Y-83225000D01*
X137768478Y-83236522D02*
G75*
G02X135930000Y-87675000I-1838478J-1838478D01*
G01*
X134091522Y-83236522D02*
G75*
G03X135930000Y-87675000I1838478J-1838478D01*
G01*
X142715000Y-81575279D02*
X142715000Y-81249721D01*
X143735000Y-81575279D02*
X143735000Y-81249721D01*
X140840000Y-85599721D02*
X140840000Y-85925279D01*
X141860000Y-85599721D02*
X141860000Y-85925279D01*
X140935000Y-81299721D02*
X140935000Y-81625279D01*
X139915000Y-81299721D02*
X139915000Y-81625279D01*
D11*
X130248333Y-81797142D02*
X130200714Y-81844761D01*
X130057857Y-81892380D01*
X129962619Y-81892380D01*
X129819761Y-81844761D01*
X129724523Y-81749523D01*
X129676904Y-81654285D01*
X129629285Y-81463809D01*
X129629285Y-81320952D01*
X129676904Y-81130476D01*
X129724523Y-81035238D01*
X129819761Y-80940000D01*
X129962619Y-80892380D01*
X130057857Y-80892380D01*
X130200714Y-80940000D01*
X130248333Y-80987619D01*
X131200714Y-81892380D02*
X130629285Y-81892380D01*
X130915000Y-81892380D02*
X130915000Y-80892380D01*
X130819761Y-81035238D01*
X130724523Y-81130476D01*
X130629285Y-81178095D01*
X126977142Y-85011666D02*
X127024761Y-85059285D01*
X127072380Y-85202142D01*
X127072380Y-85297380D01*
X127024761Y-85440238D01*
X126929523Y-85535476D01*
X126834285Y-85583095D01*
X126643809Y-85630714D01*
X126500952Y-85630714D01*
X126310476Y-85583095D01*
X126215238Y-85535476D01*
X126120000Y-85440238D01*
X126072380Y-85297380D01*
X126072380Y-85202142D01*
X126120000Y-85059285D01*
X126167619Y-85011666D01*
X126167619Y-84630714D02*
X126120000Y-84583095D01*
X126072380Y-84487857D01*
X126072380Y-84249761D01*
X126120000Y-84154523D01*
X126167619Y-84106904D01*
X126262857Y-84059285D01*
X126358095Y-84059285D01*
X126500952Y-84106904D01*
X127072380Y-84678333D01*
X127072380Y-84059285D01*
X141902142Y-89541666D02*
X141949761Y-89589285D01*
X141997380Y-89732142D01*
X141997380Y-89827380D01*
X141949761Y-89970238D01*
X141854523Y-90065476D01*
X141759285Y-90113095D01*
X141568809Y-90160714D01*
X141425952Y-90160714D01*
X141235476Y-90113095D01*
X141140238Y-90065476D01*
X141045000Y-89970238D01*
X140997380Y-89827380D01*
X140997380Y-89732142D01*
X141045000Y-89589285D01*
X141092619Y-89541666D01*
X140997380Y-89208333D02*
X140997380Y-88589285D01*
X141378333Y-88922619D01*
X141378333Y-88779761D01*
X141425952Y-88684523D01*
X141473571Y-88636904D01*
X141568809Y-88589285D01*
X141806904Y-88589285D01*
X141902142Y-88636904D01*
X141949761Y-88684523D01*
X141997380Y-88779761D01*
X141997380Y-89065476D01*
X141949761Y-89160714D01*
X141902142Y-89208333D01*
X124867420Y-82738553D02*
X125581706Y-82738553D01*
X125724563Y-82786172D01*
X125819801Y-82881410D01*
X125867420Y-83024267D01*
X125867420Y-83119505D01*
X125867420Y-81738553D02*
X125867420Y-82309981D01*
X125867420Y-82024267D02*
X124867420Y-82024267D01*
X125010278Y-82119505D01*
X125105516Y-82214743D01*
X125153135Y-82309981D01*
X143052206Y-74842120D02*
X143052206Y-75556406D01*
X143004587Y-75699263D01*
X142909349Y-75794501D01*
X142766492Y-75842120D01*
X142671254Y-75842120D01*
X143480778Y-74937359D02*
X143528397Y-74889740D01*
X143623635Y-74842120D01*
X143861730Y-74842120D01*
X143956968Y-74889740D01*
X144004587Y-74937359D01*
X144052206Y-75032597D01*
X144052206Y-75127835D01*
X144004587Y-75270692D01*
X143433159Y-75842120D01*
X144052206Y-75842120D01*
X152325746Y-89972900D02*
X152325746Y-90687186D01*
X152278127Y-90830043D01*
X152182889Y-90925281D01*
X152040032Y-90972900D01*
X151944794Y-90972900D01*
X152706699Y-89972900D02*
X153325746Y-89972900D01*
X152992413Y-90353853D01*
X153135270Y-90353853D01*
X153230508Y-90401472D01*
X153278127Y-90449091D01*
X153325746Y-90544329D01*
X153325746Y-90782424D01*
X153278127Y-90877662D01*
X153230508Y-90925281D01*
X153135270Y-90972900D01*
X152849556Y-90972900D01*
X152754318Y-90925281D01*
X152706699Y-90877662D01*
X135794761Y-76997619D02*
X135699523Y-76950000D01*
X135604285Y-76854761D01*
X135461428Y-76711904D01*
X135366190Y-76664285D01*
X135270952Y-76664285D01*
X135318571Y-76902380D02*
X135223333Y-76854761D01*
X135128095Y-76759523D01*
X135080476Y-76569047D01*
X135080476Y-76235714D01*
X135128095Y-76045238D01*
X135223333Y-75950000D01*
X135318571Y-75902380D01*
X135509047Y-75902380D01*
X135604285Y-75950000D01*
X135699523Y-76045238D01*
X135747142Y-76235714D01*
X135747142Y-76569047D01*
X135699523Y-76759523D01*
X135604285Y-76854761D01*
X135509047Y-76902380D01*
X135318571Y-76902380D01*
X136699523Y-76902380D02*
X136128095Y-76902380D01*
X136413809Y-76902380D02*
X136413809Y-75902380D01*
X136318571Y-76045238D01*
X136223333Y-76140476D01*
X136128095Y-76188095D01*
X135834761Y-89182619D02*
X135739523Y-89135000D01*
X135644285Y-89039761D01*
X135501428Y-88896904D01*
X135406190Y-88849285D01*
X135310952Y-88849285D01*
X135358571Y-89087380D02*
X135263333Y-89039761D01*
X135168095Y-88944523D01*
X135120476Y-88754047D01*
X135120476Y-88420714D01*
X135168095Y-88230238D01*
X135263333Y-88135000D01*
X135358571Y-88087380D01*
X135549047Y-88087380D01*
X135644285Y-88135000D01*
X135739523Y-88230238D01*
X135787142Y-88420714D01*
X135787142Y-88754047D01*
X135739523Y-88944523D01*
X135644285Y-89039761D01*
X135549047Y-89087380D01*
X135358571Y-89087380D01*
X136168095Y-88182619D02*
X136215714Y-88135000D01*
X136310952Y-88087380D01*
X136549047Y-88087380D01*
X136644285Y-88135000D01*
X136691904Y-88182619D01*
X136739523Y-88277857D01*
X136739523Y-88373095D01*
X136691904Y-88515952D01*
X136120476Y-89087380D01*
X136739523Y-89087380D01*
X142247380Y-81579166D02*
X141771190Y-81912500D01*
X142247380Y-82150595D02*
X141247380Y-82150595D01*
X141247380Y-81769642D01*
X141295000Y-81674404D01*
X141342619Y-81626785D01*
X141437857Y-81579166D01*
X141580714Y-81579166D01*
X141675952Y-81626785D01*
X141723571Y-81674404D01*
X141771190Y-81769642D01*
X141771190Y-82150595D01*
X142247380Y-80626785D02*
X142247380Y-81198214D01*
X142247380Y-80912500D02*
X141247380Y-80912500D01*
X141390238Y-81007738D01*
X141485476Y-81102976D01*
X141533095Y-81198214D01*
X132922380Y-83556666D02*
X132446190Y-83890000D01*
X132922380Y-84128095D02*
X131922380Y-84128095D01*
X131922380Y-83747142D01*
X131970000Y-83651904D01*
X132017619Y-83604285D01*
X132112857Y-83556666D01*
X132255714Y-83556666D01*
X132350952Y-83604285D01*
X132398571Y-83651904D01*
X132446190Y-83747142D01*
X132446190Y-84128095D01*
X132017619Y-83175714D02*
X131970000Y-83128095D01*
X131922380Y-83032857D01*
X131922380Y-82794761D01*
X131970000Y-82699523D01*
X132017619Y-82651904D01*
X132112857Y-82604285D01*
X132208095Y-82604285D01*
X132350952Y-82651904D01*
X132922380Y-83223333D01*
X132922380Y-82604285D01*
X143232380Y-85929166D02*
X142756190Y-86262500D01*
X143232380Y-86500595D02*
X142232380Y-86500595D01*
X142232380Y-86119642D01*
X142280000Y-86024404D01*
X142327619Y-85976785D01*
X142422857Y-85929166D01*
X142565714Y-85929166D01*
X142660952Y-85976785D01*
X142708571Y-86024404D01*
X142756190Y-86119642D01*
X142756190Y-86500595D01*
X142232380Y-85595833D02*
X142232380Y-84976785D01*
X142613333Y-85310119D01*
X142613333Y-85167261D01*
X142660952Y-85072023D01*
X142708571Y-85024404D01*
X142803809Y-84976785D01*
X143041904Y-84976785D01*
X143137142Y-85024404D01*
X143184761Y-85072023D01*
X143232380Y-85167261D01*
X143232380Y-85452976D01*
X143184761Y-85548214D01*
X143137142Y-85595833D01*
X142307380Y-81629166D02*
X141831190Y-81962500D01*
X142307380Y-82200595D02*
X141307380Y-82200595D01*
X141307380Y-81819642D01*
X141355000Y-81724404D01*
X141402619Y-81676785D01*
X141497857Y-81629166D01*
X141640714Y-81629166D01*
X141735952Y-81676785D01*
X141783571Y-81724404D01*
X141831190Y-81819642D01*
X141831190Y-82200595D01*
X141640714Y-80772023D02*
X142307380Y-80772023D01*
X141259761Y-81010119D02*
X141974047Y-81248214D01*
X141974047Y-80629166D01*
X132974340Y-86493646D02*
X132498150Y-86826980D01*
X132974340Y-87065075D02*
X131974340Y-87065075D01*
X131974340Y-86684122D01*
X132021960Y-86588884D01*
X132069579Y-86541265D01*
X132164817Y-86493646D01*
X132307674Y-86493646D01*
X132402912Y-86541265D01*
X132450531Y-86588884D01*
X132498150Y-86684122D01*
X132498150Y-87065075D01*
X131974340Y-85588884D02*
X131974340Y-86065075D01*
X132450531Y-86112694D01*
X132402912Y-86065075D01*
X132355293Y-85969837D01*
X132355293Y-85731741D01*
X132402912Y-85636503D01*
X132450531Y-85588884D01*
X132545769Y-85541265D01*
X132783864Y-85541265D01*
X132879102Y-85588884D01*
X132926721Y-85636503D01*
X132974340Y-85731741D01*
X132974340Y-85969837D01*
X132926721Y-86065075D01*
X132879102Y-86112694D01*
X133178253Y-90586820D02*
X132844920Y-90110630D01*
X132606824Y-90586820D02*
X132606824Y-89586820D01*
X132987777Y-89586820D01*
X133083015Y-89634440D01*
X133130634Y-89682059D01*
X133178253Y-89777297D01*
X133178253Y-89920154D01*
X133130634Y-90015392D01*
X133083015Y-90063011D01*
X132987777Y-90110630D01*
X132606824Y-90110630D01*
X134035396Y-89586820D02*
X133844920Y-89586820D01*
X133749681Y-89634440D01*
X133702062Y-89682059D01*
X133606824Y-89824916D01*
X133559205Y-90015392D01*
X133559205Y-90396344D01*
X133606824Y-90491582D01*
X133654443Y-90539201D01*
X133749681Y-90586820D01*
X133940158Y-90586820D01*
X134035396Y-90539201D01*
X134083015Y-90491582D01*
X134130634Y-90396344D01*
X134130634Y-90158249D01*
X134083015Y-90063011D01*
X134035396Y-90015392D01*
X133940158Y-89967773D01*
X133749681Y-89967773D01*
X133654443Y-90015392D01*
X133606824Y-90063011D01*
X133559205Y-90158249D01*
M02*
